# Blender v2.93.0 OBJ File: 'casaLeo.blend'
# www.blender.org
mtllib casaLeo.mtl
o 1planta_paredes_Plano
v -1.000000 0.000000 -1.000000
v 11.000000 0.000000 -1.000000
v -1.000000 0.000000 -1.000000
v -1.000000 0.000000 -1.000000
v 11.000000 0.000000 3.000000
v -1.000000 0.000000 15.000000
v 3.000000 0.000000 15.000000
v 11.000000 0.000000 -1.000000
v -1.000000 0.000000 -1.000000
v -1.000000 0.000000 15.000000
v 11.000000 0.000000 11.000000
v 3.000000 0.000000 11.000000
v 11.000000 0.000000 15.000000
v 11.000000 2.500000 -1.000000
v -1.000000 2.500000 -1.000000
v 11.000000 2.500000 3.000000
v 11.000000 2.500000 11.000000
v 3.000000 2.500000 11.000000
v 3.000000 2.500000 15.000000
v 11.000000 2.500000 15.000000
v 6.000000 0.000000 15.000000
v 7.000000 0.000000 15.000000
v 10.000000 0.000000 15.000000
v 6.000000 2.500000 15.000000
v 7.000000 2.500000 15.000000
v 10.000000 2.500000 15.000000
v 6.500000 0.000000 15.000000
v 6.500000 2.500000 15.000000
v 7.500000 0.000000 15.000000
v 7.500000 2.500000 15.000000
v 9.500000 0.000000 15.000000
v 9.500000 2.500000 15.000000
v 8.500000 0.000000 15.000000
v 8.750000 0.000000 15.000000
v 8.500000 2.500000 15.000000
v 8.750000 2.500000 15.000000
v -1.000000 2.500000 15.000000
v 11.000000 0.000000 2.004559
v 11.000000 0.000000 2.004559
v 11.000000 2.500000 2.004559
v 0.510000 0.000000 -1.000000
v 0.509956 2.500000 -1.000000
v -1.000000 0.000000 -1.000000
v 0.510000 0.000000 3.000000
v 0.509956 2.500000 3.000000
v -1.000000 0.000000 -1.000000
v -1.000000 2.500000 4.375162
v -1.000000 0.000000 4.375162
v -1.000000 2.500000 11.004000
v -1.000000 0.000000 11.004000
v 11.000000 0.000000 4.300759
v 11.000000 2.500000 4.300759
v 8.750000 0.000000 18.000000
v 8.750000 0.000000 18.000000
v -1.000000 0.000000 3.000000
v -1.000044 2.500000 3.000000
v 1.010000 0.000000 3.000000
v 1.009956 2.500000 3.000000
v 7.000000 0.000000 11.000000
v 7.000000 2.500000 11.000000
v 5.994779 0.000000 11.000000
v 5.994779 2.500000 11.000000
vt 0.229675 0.367473
vt 0.459345 0.000000
vt 0.459345 0.367473
vt 0.689434 0.826814
vt 0.781303 0.597143
vt 0.781303 0.826814
vt 0.689434 0.826814
vt 0.620533 0.597143
vt 0.689434 0.597143
vt 0.574599 0.597143
vt 0.528665 0.826814
vt 0.528665 0.597143
vt 0.229675 0.597143
vt 0.505698 0.367473
vt 0.505698 0.597143
vt 0.229671 0.367475
vt 0.000001 0.506194
vt 0.000000 0.367473
vt 0.229675 0.000003
vt 0.689434 0.597143
vt 0.574599 0.826814
vt 0.873171 0.826814
vt 0.781303 0.597143
vt 0.873171 0.597143
vt 0.781303 0.597143
vt 0.505698 0.367473
vt 0.781303 0.367473
vt 0.229675 0.367473
vt 0.229671 0.506192
vt 0.000004 0.000000
vt 0.620533 0.826814
vt 0.781303 0.826814
vt 0.505698 0.597143
vt 0.000004 1.000000
vt 0.229675 0.999999
vt 0.689016 0.000000
vt 0.459345 0.367105
vt 0.459345 0.000000
vt 0.781303 0.367473
vt 0.900801 0.597143
vt 0.781303 0.597143
vt 0.689016 0.367105
vt 0.900801 0.367473
vt 0.827737 0.000002
vt 0.689016 0.229670
vt 0.689016 0.000000
vt 0.620533 0.597144
vt 0.574599 0.826814
vt 0.574599 0.597143
vt 0.504800 0.826814
vt 0.229675 0.597143
vt 0.504800 0.597143
vt 0.229675 0.000000
vt 0.827737 0.229673
vt 0.620533 0.826815
vt 0.229675 0.826814
vn 0.0000 0.0000 -1.0000
vn 0.0000 0.0000 1.0000
vn -1.0000 0.0000 0.0000
vn 1.0000 0.0000 0.0000
usemtl paredes
s off
f 11/1/1 60/2/1 17/3/1
f 13/4/2 26/5/2 23/6/2
f 34/7/2 32/8/2 36/9/2
f 22/10/2 28/11/2 27/12/2
f 39/13/3 14/14/3 8/15/3
f 42/16/2 1/17/2 41/18/2
f 41/18/3 45/19/3 42/16/3
f 13/4/2 20/20/2 26/5/2
f 22/10/2 25/21/2 28/11/2
f 29/22/2 35/23/2 30/24/2
f 7/25/2 24/26/2 19/27/2
f 39/13/3 40/28/3 14/14/3
f 42/16/2 15/29/2 1/17/2
f 41/18/3 44/30/3 45/19/3
f 34/7/2 31/31/2 32/8/2
f 29/22/2 33/32/2 35/23/2
f 7/25/2 21/33/2 24/26/2
f 48/34/4 15/29/4 47/35/4
f 10/36/4 49/37/4 37/38/4
f 5/39/3 52/40/3 16/41/3
f 48/34/4 1/17/4 15/29/4
f 10/36/4 50/42/4 49/37/4
f 5/39/3 51/43/3 52/40/3
f 45/44/1 55/45/1 56/46/1
f 44/47/1 58/48/1 57/49/1
f 61/50/1 18/51/1 62/52/1
f 11/1/1 59/53/1 60/2/1
f 45/44/1 44/54/1 55/45/1
f 44/47/1 45/55/1 58/48/1
f 61/50/1 12/56/1 18/51/1
l 1 3
l 3 4
l 10 6
l 2 38
l 38 39
l 4 9
l 53 54
o 1planta_pared_frontal_Plano.013
v 3.000000 0.000000 11.000000
v 3.000000 0.000000 13.000000
v 3.000000 2.500000 11.000000
v 3.000000 2.500000 13.000000
v 3.000000 0.000000 13.000000
v 3.000000 2.500000 13.000000
v 9.000000 0.000000 13.000000
v 9.000000 2.500000 13.000000
v 9.000000 0.000000 11.000000
v 9.000000 0.000000 13.000000
v 9.000000 2.500000 11.000000
v 9.000000 2.500000 13.000000
v -1.000000 0.000000 11.000000
v -1.000000 2.500000 11.000000
v 3.000000 2.500000 11.000000
v 1.963893 0.000000 11.000000
v 3.000000 1.956157 11.000000
v 1.963893 1.956157 11.000000
vt 0.000000 0.000000
vt 1.000000 1.000000
vt 0.000000 1.000000
vt 0.259027 0.205295
vt 0.000000 0.000000
vt 1.000000 0.000000
vt 0.000000 0.000000
vt 1.000000 1.000000
vt 0.000000 1.000000
vt 1.000000 0.000000
vt 1.000000 0.943725
vt 0.259027 0.943725
vt 0.000000 0.205295
vt 1.000000 0.000000
vt 0.000000 1.000000
vt 1.000000 0.000000
vt 1.000000 1.000000
vt -0.000000 0.000000
vn 1.0000 0.0000 0.0000
vn 0.0000 0.0000 1.0000
vn -1.0000 0.0000 0.0000
usemtl pared.gris
s off
f 72/57/5 73/58/5 74/59/5
f 80/60/6 77/61/6 76/62/6
f 63/63/7 66/64/7 65/65/7
f 72/57/5 71/66/5 73/58/5
f 76/62/6 75/67/6 80/60/6
f 75/67/6 78/68/6 80/60/6
f 80/60/6 79/69/6 77/61/6
f 63/63/7 64/70/7 66/64/7
usemtl Material.006
f 68/71/6 69/72/6 70/73/6
f 68/71/6 67/74/6 69/72/6
o 1planta_piso_Plano.015
v 11.000000 0.000000 15.000000
v -1.000000 0.000000 -1.000000
v -1.000000 0.000000 15.000000
v 11.000000 0.000000 -1.000000
vt 0.750000 0.000000
vt 0.000000 1.000000
vt 0.000000 0.000000
vt 0.750000 1.000000
vn 0.0000 1.0000 0.0000
usemtl paredes
s off
f 82/75/8 81/76/8 84/77/8
f 82/75/8 83/78/8 81/76/8
o 1planta_techo_Plano.017
v 11.000000 2.500000 15.000000
v -1.000000 2.500000 -1.000000
v -1.000000 2.500000 15.000000
v 11.000000 2.500000 -1.000000
vt 1.000000 0.000000
vt 0.000000 1.000000
vt 0.000000 0.000000
vt 1.000000 1.000000
vn 0.0000 1.0000 0.0000
usemtl paredes
s off
f 86/79/9 85/80/9 88/81/9
f 86/79/9 87/82/9 85/80/9
o concreto_Plano.002
v 10.000000 0.000000 -5.000000
v 10.000000 0.000000 -10.000000
v 4.000000 0.000000 -5.000000
v 4.000000 0.000000 -10.000000
v 4.140285 0.000000 -5.140284
v 9.859715 0.000000 -5.140284
v 9.859715 0.000000 -9.859716
v 4.140285 0.000000 -9.859716
v 4.140285 -0.200000 -5.140284
v 4.140285 -0.200000 -9.859716
v 9.859715 -0.200000 -5.140284
v 9.859715 -0.200000 -9.859716
v 10.000000 0.000000 -5.000000
v 11.000000 0.000000 -5.000000
v 10.000000 0.000000 -10.000000
v 11.000000 0.000000 -10.000000
v -1.000000 0.000000 -5.000000
v -1.000000 0.000000 -10.000000
v 4.000000 0.000000 -1.000000
v -1.000000 0.000000 -1.000000
v 3.000000 0.000000 15.000000
v 11.000000 0.000000 15.000000
v 8.750000 0.000000 15.000000
v -1.000000 0.000000 11.000000
v 8.750000 0.000000 18.000000
v 11.000000 0.000000 18.000000
v 3.000000 0.000000 18.000000
v -1.000000 0.000000 15.000000
v -1.000000 0.000000 18.000000
v -6.000000 0.000000 15.000000
v -6.000000 0.000000 18.000000
v -6.000000 0.000000 11.000000
v 3.000000 0.000000 35.000000
v -1.000000 0.000000 35.000000
v -6.000000 0.000000 35.000000
vt 0.437396 0.757754
vt 0.907376 0.783215
vt 0.887251 0.767649
vt 0.436630 0.352571
vt 0.426334 0.341067
vt 0.906611 0.378033
vt 0.917672 0.794720
vt 0.917672 0.368387
vt 0.426334 0.767400
vt 0.891469 0.396714
vt 0.452538 0.739073
vt 0.456755 0.368138
vt 0.000000 0.000000
vt 0.000000 0.200000
vt 1.000000 0.200000
vt 0.999999 0.000000
vt 0.000000 0.000001
vt 0.000000 1.000000
vt 0.000000 0.800000
vt 1.000000 0.800000
vt 1.000000 0.000000
vt 0.800000 1.000000
vt 0.800000 0.000000
vt 0.000000 0.000000
vt 0.750000 1.000000
vt 0.750000 0.000000
vt 0.000000 0.000000
vt 0.000000 1.000000
vt 0.750000 1.000000
vt 0.750000 0.000000
vt 0.000000 0.000000
vt 0.000000 0.600000
vt 1.000000 0.600000
vt 1.000000 0.000000
vt 0.999999 0.999999
vt 0.000000 0.000000
vt 0.000000 1.000000
vt 0.000000 1.000000
vt 1.000000 0.000000
vt 1.000000 0.294118
vt 0.000000 0.000000
vt 1.000000 0.235294
vt 1.000000 0.000000
vt 0.000000 0.000000
vt 0.000000 0.294118
vt 0.000000 0.235294
vn 0.0000 0.0000 1.0000
vn 0.0000 1.0000 0.0000
vn 1.0000 0.0000 0.0000
vn -1.0000 0.0000 0.0000
vn 0.0000 0.0000 -1.0000
vn 0.0000 -1.0000 0.0000
usemtl concreto
s off
f 95/83/10 96/84/10 98/85/10
f 95/83/11 94/86/11 89/87/11
f 93/88/11 96/84/11 92/89/11
f 94/86/11 93/88/11 91/90/11
f 96/84/11 95/83/11 90/91/11
f 96/84/12 93/88/12 97/92/12
f 94/86/13 95/83/13 100/93/13
f 93/88/14 94/86/14 99/94/14
f 102/95/15 101/96/15 103/97/15
f 91/98/11 92/99/11 106/100/11
f 91/101/11 105/102/11 108/103/11
f 116/104/15 118/105/15 120/106/15
f 111/107/11 113/108/11 114/109/11
f 115/110/11 109/111/11 116/112/11
f 117/113/11 116/114/11 118/115/11
f 95/83/10 98/85/10 100/93/10
f 95/83/11 89/87/11 90/91/11
f 93/88/11 92/89/11 91/90/11
f 94/86/11 91/90/11 89/87/11
f 96/84/11 90/91/11 92/89/11
f 96/84/12 97/92/12 98/85/12
f 94/86/13 100/93/13 99/94/13
f 93/88/14 99/94/14 97/92/14
f 102/95/15 103/97/15 104/116/15
f 91/98/11 106/100/11 105/117/11
f 91/101/11 108/103/11 107/118/11
f 116/104/15 120/106/15 112/119/15
f 111/107/11 114/109/11 110/120/11
f 115/110/11 116/112/11 117/113/11
f 117/113/11 118/115/11 119/121/11
f 117/122/11 119/121/11 123/123/11
f 115/124/11 117/125/11 122/126/11
f 117/122/11 123/123/11 122/127/11
f 115/124/11 122/126/11 121/128/11
o pasto_Plano.003
v 11.000000 0.000000 15.000000
v -1.000000 0.000000 -1.000000
v 11.000000 0.000000 -1.000000
v 11.000000 0.000000 35.000000
v -21.000000 0.000000 -1.000000
v -21.000000 0.000000 15.000000
v -21.000000 0.000000 35.000000
v -1.000000 0.000000 -21.000000
v -21.000000 0.000000 -21.000000
v 31.000000 0.000000 15.000000
v 31.000000 0.000000 -1.000000
v 31.000000 0.000000 35.000000
v 31.000000 0.000000 -21.000000
v 4.000000 0.000000 -5.000000
v 11.000000 0.000000 -10.000000
v -1.000000 0.000000 -10.000000
v 4.000000 0.000000 -1.000000
v 11.000000 0.000000 -5.000000
v 11.000000 0.000000 -1.000000
v 11.000000 0.000000 -21.000000
v -1.000000 0.000000 -21.000000
v -5.971001 0.000000 15.000000
v -5.971001 0.000000 -1.000000
v -5.971001 0.000000 35.000000
v -5.971001 0.000000 -21.000000
v -1.000000 0.000000 11.004232
v -21.000000 0.000000 11.004232
v -5.971001 0.000000 11.004232
v -21.000000 0.000000 17.989130
v -5.971001 0.000000 17.989130
v 3.000000 0.000000 15.000000
v 8.750000 0.000000 15.000000
v 8.750000 0.000000 18.000000
v 3.000000 0.000000 18.000000
v 11.000000 0.000000 18.000000
v 3.000000 0.000000 35.000000
vt 0.983945 -0.095047
vt 2.027297 0.797841
vt 0.983945 0.797841
vt 0.983945 1.095056
vt 2.027297 1.317388
vt 0.983945 1.317388
vt 0.638845 -0.095047
vt 0.983945 -1.582680
vt -0.194224 2.582680
vt -1.582680 1.095056
vt -0.194224 1.095056
vt -1.582680 -0.095047
vt -0.194224 -0.095047
vt 2.235273 -0.318195
vt 2.027298 0.377010
vt 2.027298 -0.318195
vt -0.194224 -0.764487
vt -1.582680 -1.582680
vt 2.027297 -1.582680
vt 2.027297 -0.095047
vt 0.638845 0.797841
vt 2.027297 1.095056
vt 2.027297 2.582680
vt 0.983945 2.582680
vt 2.027298 0.377010
vt 2.183279 0.948072
vt 2.027298 0.948072
vt -1.582680 2.582680
vt 2.235273 0.377010
vt 2.582680 -0.318197
vt 2.027298 -1.582680
vt 2.582680 -1.582680
vt 2.183279 0.377010
vt 2.027298 -0.318197
vt 0.638845 -1.582680
vt 0.638843 -0.764487
vn 0.0000 1.0000 0.0000
vn 0.0000 -1.0000 0.0000
usemtl pasto
s off
f 146/129/16 150/130/16 151/131/16
f 145/132/16 152/133/16 153/134/16
f 125/135/16 148/136/16 146/129/16
f 127/137/16 133/138/16 124/139/16
f 124/139/16 134/140/16 126/141/16
f 137/142/17 142/143/17 140/144/17
f 138/145/16 126/141/16 136/146/16
f 146/129/16 132/147/16 128/148/16
f 125/135/16 151/131/16 149/149/16
f 151/131/16 129/150/16 145/132/16
f 153/134/16 130/151/16 147/152/16
f 157/153/17 155/154/17 156/155/17
f 146/129/16 128/148/16 150/130/16
f 145/132/16 129/150/16 152/133/16
f 126/141/16 134/140/16 136/146/16
f 127/137/16 135/156/16 133/138/16
f 124/139/16 133/138/16 134/140/16
f 137/142/17 141/157/17 142/143/17
f 146/129/16 148/136/16 132/147/16
f 125/135/16 146/129/16 151/131/16
f 151/131/16 150/130/16 129/150/16
f 153/134/16 152/133/16 130/151/16
f 127/158/17 157/159/17 158/160/17
f 157/153/17 154/161/17 155/154/17
f 127/158/17 159/162/17 157/159/17
f 148/136/16 125/135/16 131/163/16
f 136/146/16 131/163/16 138/145/16
f 131/163/16 139/164/16 138/145/16
l 139 144
l 138 143
o agua_Plano.005
v 4.140285 -0.200000 -5.140284
v 4.140285 -0.200000 -9.859716
v 9.859715 -0.200000 -5.140284
v 9.859715 -0.200000 -9.859716
vt 0.000000 0.000000
vt 0.000000 1.000000
vt 0.807926 1.000000
vt 0.807926 0.000000
vn 0.0000 1.0000 0.0000
usemtl Material.001
s off
f 162/165/18 163/166/18 161/167/18
f 162/165/18 161/167/18 160/168/18
o 2planta_paredes_Plano.001
v 11.014810 2.500000 6.336363
v -0.985190 2.500000 12.332418
v 11.014810 5.000000 12.332418
v 11.014810 2.500000 12.332418
v -0.985190 2.500000 4.332419
v -0.985190 5.000000 12.332418
v -0.985190 5.000000 4.332419
v 11.014810 2.500000 4.336363
v 11.014810 5.000000 4.336363
v 11.014810 2.500000 9.666363
v 11.014810 5.000000 9.666363
v 10.009456 2.500000 12.332418
v 10.009456 5.000000 12.332418
v 10.009456 2.500000 9.666364
v 10.009456 5.000000 9.666364
v -0.985190 2.500000 8.333337
v -0.985190 5.000000 8.333337
v 10.009456 2.500000 8.333336
v 10.009456 5.000000 8.333336
v 2.998929 5.000000 8.333336
v 2.998929 2.500000 8.333336
v 1.509976 5.000000 8.333336
v 1.509976 2.500000 8.333336
v 11.014810 5.000000 6.336363
v 2.998929 2.500000 4.333336
v 2.998929 5.000000 4.333336
v 2.998929 2.500000 7.333336
v 2.998929 5.000000 7.333336
v 2.998929 2.500000 12.333336
v 2.998929 2.500000 12.333336
v 2.998929 5.000000 12.333336
v 2.998929 2.500000 9.333336
v 2.998929 5.000000 9.333336
v -0.485190 2.500000 12.332418
v -0.485190 5.000000 12.332418
v -0.485190 2.500000 4.332419
v -0.485190 5.000000 4.332419
v 3.498929 2.500000 12.333336
v 3.498929 5.000000 12.333336
v 3.498929 2.500000 4.333336
v 3.498929 5.000000 4.333336
vt 0.894796 0.262866
vt 0.789029 0.525733
vt 0.789029 0.262866
vt 0.263009 0.737133
vt 0.526019 0.000000
vt 0.526019 0.737133
vt 0.789029 0.000000
vt 0.999436 0.262866
vt 0.789029 0.262866
vt 0.789029 0.525733
vt 0.894796 0.788600
vt 0.789029 0.788600
vt 0.000000 0.000000
vt 0.263009 0.420683
vt 0.000000 0.420683
vt 0.525511 1.000000
vt 0.263010 0.737133
vt 0.525511 0.737133
vt 0.894796 0.525733
vt 0.263009 0.000000
vt 0.789028 0.315440
vt 0.526019 0.630880
vt 0.526019 0.315440
vt 0.526019 0.911207
vt 0.526019 0.630880
vt 0.789028 0.911207
vt 0.789028 0.630880
vt 0.894796 0.525733
vt 0.263009 0.841173
vt 0.000000 0.841173
vt 0.263009 0.000000
vt 0.263010 1.000000
vt 0.789028 0.000000
vt 0.526019 0.315440
vt 0.526019 0.000000
vt 0.894796 0.525733
vt 0.947398 0.788600
vt 0.894796 0.788600
vt 0.947398 0.525733
vt 0.894796 0.262866
vt 0.947398 0.262866
vt 1.000000 0.788600
vt 0.947398 0.525733
vt 1.000000 0.525733
vt 0.999999 0.525733
vt 0.947398 0.262867
vt 1.000000 0.262867
vt 0.999436 0.000000
vt 0.789028 0.630880
vt 0.789028 0.315440
vt 0.947398 0.525733
vt 0.894796 0.525733
vt 0.947398 0.788600
vt 0.947398 0.525733
vn 0.0000 0.0000 -1.0000
vn -1.0000 0.0000 0.0000
vn 0.0000 0.0000 1.0000
vn 1.0000 0.0000 0.0000
usemtl paredes
s off
f 177/169/19 174/170/19 173/171/19
f 183/172/19 181/173/19 184/174/19
f 171/175/20 187/176/20 172/177/20
f 175/178/21 166/179/21 176/180/21
f 170/181/20 179/182/20 180/183/20
f 180/184/19 186/185/19 179/186/19
f 177/169/19 178/187/19 174/170/19
f 183/172/19 182/188/19 181/173/19
f 188/189/20 191/190/20 189/191/20
f 174/192/22 166/193/22 173/194/22
f 166/193/22 167/195/22 173/194/22
f 175/178/21 167/196/21 166/179/21
f 179/182/20 165/197/20 169/198/20
f 179/182/20 169/198/20 180/183/20
f 170/181/20 168/199/20 179/182/20
f 180/184/19 185/200/19 186/185/19
f 192/201/22 196/202/22 194/203/22
f 165/204/21 198/205/21 169/206/21
f 170/207/19 199/208/19 168/209/19
f 194/210/19 201/211/19 192/212/19
f 189/213/19 203/214/19 188/215/19
f 171/175/20 164/216/20 187/176/20
f 188/189/20 190/217/20 191/190/20
f 192/201/22 195/218/22 196/202/22
f 165/204/21 197/219/21 198/205/21
f 170/207/19 200/220/19 199/208/19
f 194/210/19 202/221/19 201/211/19
f 189/213/19 204/222/19 203/214/19
l 192 193
o 2plantatecho_Plano.016
v 11.014810 5.000000 12.332418
v -0.985190 5.000000 12.332418
v -0.985190 5.000000 4.332419
v 11.014810 5.000000 9.666363
v 10.009455 5.000000 4.332418
v 10.009456 5.000000 9.666364
vt 0.000000 1.000000
vt 0.000000 0.000000
vt 0.333256 0.083779
vt 1.000000 0.000000
vt 1.000000 0.000000
vt 0.333256 0.000000
vn 0.0000 1.0000 -0.0000
usemtl paredes
s off
f 206/223/23 205/224/23 210/225/23
f 210/225/23 209/226/23 207/227/23
f 205/224/23 208/228/23 210/225/23
f 207/227/23 206/223/23 210/225/23
o 2plantatextura_Plano.014
v 10.009456 5.000000 8.999849
v 10.009455 2.500000 4.332418
v 10.009455 5.000000 4.332418
v 10.009456 2.500000 8.999849
vt 0.000000 0.000001
vt 1.000000 0.808775
vt 0.000000 0.808775
vt 1.000000 0.000000
vn 1.0000 0.0000 -0.0000
usemtl pared.gris
s off
f 214/229/24 213/230/24 211/231/24
f 214/229/24 212/232/24 213/230/24
