# Blender v2.93.0 OBJ File: 'casaLeo.blend'
# www.blender.org
mtllib casaLeo.mtl
o 1planta_Plano
v -1.000000 0.000000 3.000000
v -1.000000 0.000000 -1.000000
v 11.000000 0.000000 -1.000000
v -1.000000 0.000000 -1.000000
v -1.000000 0.000000 -1.000000
v 3.000000 0.000000 3.000000
v 11.000000 0.000000 3.000000
v -1.000000 0.000000 11.000000
v -1.000000 0.000000 15.000000
v 11.000000 0.000000 11.000000
v 3.000000 0.000000 11.000000
v 3.000000 0.000000 15.000000
v 11.000000 0.000000 15.000000
v -1.000000 0.000000 3.000000
v 11.000000 0.000000 -1.000000
v -1.000000 0.000000 -1.000000
v 3.000000 0.000000 3.000000
v 11.000000 0.000000 3.000000
v -1.000000 0.000000 11.000000
v -1.000000 0.000000 15.000000
v 11.000000 0.000000 11.000000
v 3.000000 0.000000 11.000000
v 3.000000 0.000000 15.000000
v 11.000000 0.000000 15.000000
v -1.000000 2.500000 3.000000
v 11.000000 2.500000 -1.000000
v -1.000000 2.500000 -1.000000
v 11.000000 2.500000 3.000000
v -1.000000 2.500000 11.000000
v 11.000000 2.500000 11.000000
v 3.000000 2.500000 11.000000
v 3.000000 2.500000 15.000000
v 11.000000 2.500000 15.000000
v 4.000000 0.000000 15.000000
v 5.000000 0.000000 15.000000
v 6.000000 0.000000 15.000000
v 7.000000 0.000000 15.000000
v 8.000000 0.000000 15.000000
v 9.000000 0.000000 15.000000
v 10.000000 0.000000 15.000000
v 4.000000 0.000000 15.000000
v 5.000000 0.000000 15.000000
v 6.000000 0.000000 15.000000
v 7.000000 0.000000 15.000000
v 8.000000 0.000000 15.000000
v 9.000000 0.000000 15.000000
v 10.000000 0.000000 15.000000
v 4.000000 2.500000 15.000000
v 5.000000 2.500000 15.000000
v 6.000000 2.500000 15.000000
v 7.000000 2.500000 15.000000
v 8.000000 2.500000 15.000000
v 9.000000 2.500000 15.000000
v 10.000000 2.500000 15.000000
v 6.500000 0.000000 15.000000
v 6.500000 0.000000 15.000000
v 6.500000 2.500000 15.000000
v 7.500000 0.000000 15.000000
v 7.500000 0.000000 15.000000
v 7.500000 2.500000 15.000000
v 9.500000 0.000000 15.000000
v 9.500000 0.000000 15.000000
v 9.500000 2.500000 15.000000
v 8.250000 0.000000 15.000000
v 8.500000 0.000000 15.000000
v 8.750000 0.000000 15.000000
v 8.250000 0.000000 15.000000
v 8.500000 0.000000 15.000000
v 8.750000 0.000000 15.000000
v 8.250000 2.500000 15.000000
v 8.500000 2.500000 15.000000
v 8.750000 2.500000 15.000000
v 11.000000 0.000000 13.000000
v 11.000000 0.000000 13.000000
v 3.000000 0.000000 13.000000
v 3.000000 0.000000 13.000000
v -1.000000 0.000000 13.000000
v -1.000000 0.000000 13.000000
v -1.000000 2.500000 13.000000
v -1.000000 2.500000 11.000000
v -1.000000 2.500000 15.000000
v -1.000000 2.500000 13.000000
v 11.000000 0.000000 2.004559
v 11.000000 0.000000 2.004559
v 11.000000 2.500000 2.004559
v -1.000000 0.000000 3.000000
v 0.510000 0.000000 -1.000000
v 0.509956 2.500000 -1.000000
v -1.000000 0.000000 3.000000
v -1.000000 0.000000 3.000000
v -1.000000 2.500000 3.000000
v -1.000000 0.000000 -1.000000
v 0.510000 0.000000 3.000000
v 0.509956 2.500000 3.000000
v -1.000000 0.000000 -1.000000
v -1.000000 2.500000 3.000000
vt 0.555427 0.640167
vt 0.555427 0.640167
vt 0.555427 0.640167
vt 0.555427 0.640167
vt 0.555427 0.640167
vt 0.555427 0.640167
vt 0.555427 0.640167
vt 0.555427 0.640167
vt 0.555427 0.640167
vt 0.555427 0.640167
vt 0.555427 0.640167
vt 0.555427 0.640167
vt 0.555427 0.640167
vt 0.555427 0.640167
vt 0.555427 0.640167
vt 0.555427 0.640167
vt 0.185142 0.800208
vt 0.000000 0.640167
vt 0.185142 0.640167
vt 0.188679 0.592393
vt 0.000000 0.000000
vt 0.188679 0.000000
vt 0.377358 0.592393
vt 0.188679 0.000000
vt 0.377358 0.000000
vt 0.555427 0.640167
vt 0.981132 0.444632
vt 0.905660 0.629755
vt 0.905660 0.444632
vt 0.754717 0.592393
vt 0.566038 0.000000
vt 0.754717 0.000000
vt 0.962264 0.000000
vt 1.000000 0.185123
vt 0.962264 0.185123
vt 0.981132 0.185123
vt 0.943396 0.370245
vt 0.943396 0.185123
vt 0.555427 0.640167
vt 0.555427 0.640167
vt 0.555427 0.640167
vt 0.555427 0.640167
vt 0.555427 0.640167
vt 0.555427 0.640167
vt 0.555427 0.640167
vt 0.555427 0.640167
vt 0.555427 0.640167
vt 0.555427 0.640167
vt 0.555427 0.640167
vt 0.555427 0.640167
vt 0.555427 0.640167
vt 0.555427 0.640167
vt 0.555427 0.640167
vt 0.555427 0.640167
vt 0.555427 0.640167
vt 0.555427 0.640167
vt 0.555427 0.640167
vt 0.555427 0.640167
vt 0.555427 0.640167
vt 0.555427 0.640167
vt 0.555427 0.640167
vt 0.555427 0.640167
vt 0.555427 0.640167
vt 0.555427 0.640167
vt 0.754717 0.370583
vt 0.754717 0.296534
vt 0.943396 0.370583
vt 0.962264 0.814877
vt 0.943396 0.814877
vt 0.962264 0.629755
vt 0.905660 0.629755
vt 0.754717 0.814877
vt 0.754717 0.629755
vt 0.905660 0.444632
vt 0.754717 0.629755
vt 0.754717 0.444632
vt 0.943396 0.222485
vt 0.754717 0.000000
vt 0.943396 0.000000
vt 0.555427 0.640167
vt 0.555427 0.640167
vt 0.555427 0.640167
vt 0.868675 1.000000
vt 0.754717 0.814877
vt 0.868679 0.814877
vt 0.566037 0.592393
vt 0.377358 0.888589
vt 0.377358 0.592393
vt 0.000000 0.888589
vt 0.188679 0.592393
vt 0.188679 0.888589
vt 0.754717 0.592393
vt 0.566037 0.888589
vt 0.566037 0.592393
vt 0.555427 0.640167
vt 0.555427 0.640167
vt 0.555427 0.640167
vt 0.000000 0.800208
vt 0.000000 0.592393
vt 0.188679 0.592393
vt 0.981132 0.629755
vt 0.566038 0.592393
vt 0.943396 0.185123
vt 0.943396 0.000000
vt 1.000000 0.000000
vt 0.981132 0.370245
vt 0.754717 0.222485
vt 0.943396 0.222485
vt 0.943396 0.296534
vt 0.943396 0.444632
vt 0.754717 0.444632
vt 0.905660 0.814877
vt 0.905660 0.629755
vt 0.943396 0.629755
vt 0.981132 0.629755
vt 0.981132 0.814877
vt 0.905660 0.814877
vt 0.905660 0.629755
vt 0.754717 0.222485
vt 0.555427 0.640167
vt 0.754717 1.000000
vt 0.566037 0.888589
vt 0.000000 0.592393
vt 0.754717 0.888589
vn 0.0000 0.0000 1.0000
vn -1.0000 0.0000 0.0000
vn 0.0000 0.0000 -1.0000
vn 1.0000 0.0000 0.0000
usemtl paredes
s off
f 10/1/1 22/2/1 21/3/1
f 1/4/1 19/5/1 14/6/1
f 40/7/1 24/8/1 47/9/1
f 77/10/1 20/11/1 78/12/1
f 6/13/1 14/6/1 17/14/1
f 7/15/1 21/3/1 18/16/1
f 78/17/2 29/18/2 19/19/2
f 21/20/2 28/21/2 18/22/2
f 22/23/3 30/24/3 21/25/3
f 8/26/1 78/12/1 19/5/1
f 24/27/1 54/28/1 47/29/1
f 19/30/2 25/31/2 14/32/2
f 46/33/1 63/34/1 53/35/1
f 44/36/1 57/37/1 56/38/1
f 12/39/1 41/40/1 23/41/1
f 34/42/1 42/43/1 41/40/1
f 35/44/1 43/45/1 42/43/1
f 55/46/1 44/47/1 56/48/1
f 58/49/1 45/50/1 59/51/1
f 66/52/1 46/53/1 69/54/1
f 61/55/1 47/9/1 62/56/1
f 36/57/1 56/48/1 43/45/1
f 64/58/1 68/59/1 67/60/1
f 37/61/1 59/51/1 44/47/1
f 38/62/1 67/60/1 45/50/1
f 39/63/1 62/56/1 46/53/1
f 65/64/1 69/54/1 68/59/1
f 49/65/1 48/66/1 42/67/1
f 70/68/1 52/69/1 67/70/1
f 78/71/2 80/72/2 19/73/2
f 78/74/4 81/75/4 20/76/4
f 84/77/2 26/78/2 15/79/2
f 16/80/1 90/81/1 89/82/1
f 88/83/1 2/84/1 87/85/1
f 16/86/2 91/87/2 27/88/2
f 27/89/4 86/90/4 2/91/4
f 87/92/2 94/93/2 88/94/2
f 10/1/1 11/95/1 22/2/1
f 1/4/1 8/26/1 19/5/1
f 40/7/1 13/96/1 24/8/1
f 77/10/1 9/97/1 20/11/1
f 6/13/1 1/4/1 14/6/1
f 7/15/1 10/1/1 21/3/1
f 78/17/2 79/98/2 29/18/2
f 21/20/2 30/99/2 28/21/2
f 22/23/3 31/100/3 30/24/3
f 8/26/1 77/10/1 78/12/1
f 24/27/1 33/101/1 54/28/1
f 19/30/2 29/102/2 25/31/2
f 72/103/1 69/104/1 46/33/1
f 46/33/1 62/105/1 63/34/1
f 53/35/1 72/103/1 46/33/1
f 44/36/1 51/106/1 57/37/1
f 12/39/1 34/42/1 41/40/1
f 34/42/1 35/44/1 42/43/1
f 35/44/1 36/57/1 43/45/1
f 55/46/1 37/61/1 44/47/1
f 58/49/1 38/62/1 45/50/1
f 66/52/1 39/63/1 46/53/1
f 61/55/1 40/7/1 47/9/1
f 36/57/1 55/46/1 56/48/1
f 64/58/1 65/64/1 68/59/1
f 37/61/1 58/49/1 59/51/1
f 38/62/1 64/58/1 67/60/1
f 39/63/1 61/55/1 62/56/1
f 65/64/1 66/52/1 69/54/1
f 32/107/1 23/108/1 41/109/1
f 42/67/1 43/110/1 50/111/1
f 32/107/1 41/109/1 48/66/1
f 41/109/1 42/67/1 48/66/1
f 50/111/1 49/65/1 42/67/1
f 60/112/1 59/113/1 45/114/1
f 67/70/1 68/115/1 71/116/1
f 60/112/1 45/114/1 52/69/1
f 45/114/1 67/70/1 52/69/1
f 71/116/1 70/68/1 67/70/1
f 78/71/2 82/117/2 80/72/2
f 78/74/4 82/118/4 81/75/4
f 84/77/2 85/119/2 26/78/2
f 16/80/1 5/120/1 90/81/1
f 88/83/1 27/121/1 2/84/1
f 16/86/2 89/122/2 91/87/2
f 27/89/4 96/123/4 86/90/4
f 87/92/2 93/124/2 94/93/2
l 2 4
l 4 5
l 75 76
l 73 74
l 3 83
l 83 84
o 1planta.001_Plano.010
v 3.000000 0.000000 13.000000
v 3.000000 2.500000 13.000000
v 9.000000 0.000000 13.000000
v 9.000000 2.500000 13.000000
vt 0.168865 -0.254980
vt 0.831135 1.254980
vt 0.168865 1.254980
vt 0.831134 -0.254980
vn 0.0000 0.0000 1.0000
usemtl Material.006
s off
f 97/125/5 100/126/5 98/127/5
f 97/125/5 99/128/5 100/126/5
o 1planta.002_Plano.011
v 9.000000 0.000000 11.000000
v 9.000000 0.000000 13.000000
v 9.000000 2.500000 11.000000
v 9.000000 2.500000 13.000000
vt 0.831135 -0.254980
vt 0.168865 1.254980
vt 0.168865 -0.254980
vt 0.831135 1.254980
vn 1.0000 0.0000 0.0000
usemtl pared.gris
s off
f 101/129/6 104/130/6 102/131/6
f 101/129/6 103/132/6 104/130/6
o 1planta.003_Plano.012
v -1.000000 0.000000 11.000000
v 3.000000 0.000000 11.000000
v -1.000000 2.500000 11.000000
v 3.000000 2.500000 11.000000
vt 0.831135 -0.254980
vt 0.168865 1.254980
vt 0.168865 -0.254980
vt 0.831135 1.254980
vn 0.0000 0.0000 1.0000
usemtl pared.gris
s off
f 106/133/7 107/134/7 105/135/7
f 106/133/7 108/136/7 107/134/7
o 1planta.004_Plano.013
v 3.000000 0.000000 11.000000
v 3.000000 0.000000 13.000000
v 3.000000 2.500000 11.000000
v 3.000000 2.500000 13.000000
vt 0.831135 -0.254980
vt 0.168865 1.254980
vt 0.168865 -0.254980
vt 0.831135 1.254980
vn -1.0000 0.0000 0.0000
usemtl pared.gris
s off
f 110/137/8 111/138/8 109/139/8
f 110/137/8 112/140/8 111/138/8
o 1plantaPiso_Plano.015
v 11.000000 0.000000 -1.000000
v 11.000000 0.000000 15.000000
v -1.000000 0.000000 -1.000000
v -1.000000 0.000000 15.000000
v 11.000000 0.000000 -1.000000
vt 0.000000 0.000000
vt 0.000000 0.000000
vt 0.000000 0.000000
vt 0.000000 0.000000
vt 0.000000 0.000000
vn 0.0000 1.0000 0.0000
vn 0.0000 0.0000 1.0000
usemtl Material.004
s off
f 115/141/9 114/142/9 117/143/9
f 115/141/9 116/144/9 114/142/9
f 117/143/10 113/145/10 115/141/10
o 1plantaTecho_Plano.017
v 11.000000 2.500000 -1.000000
v 11.000000 2.500000 15.000000
v -1.000000 2.500000 -1.000000
v -1.000000 2.500000 15.000000
v 11.000000 2.500000 -1.000000
vt 1.000000 0.000000
vt 0.000000 1.000000
vt 0.000000 0.000000
vt 1.000000 1.000000
vt 1.000000 0.000000
vt 1.000000 0.000000
vn 0.0000 1.0000 0.0000
vn 0.0000 0.0000 1.0000
usemtl paredes
s off
f 120/146/11 119/147/11 122/148/11
f 120/146/11 121/149/11 119/147/11
f 122/150/12 118/151/12 120/146/12
o 1planta.005_Plano.002
v 11.000000 0.000000 3.000000
v 11.000000 2.500000 3.000000
v 7.000000 0.000000 3.000000
v 7.000000 2.500000 3.000000
vt 1.000000 0.000000
vt 0.000000 1.000000
vt 0.000000 0.000000
vt 1.000000 1.000000
vn 0.0000 0.0000 1.0000
usemtl None
s off
f 125/152/13 124/153/13 126/154/13
f 125/152/13 123/155/13 124/153/13
o 1planta.006_Plano.018
v 3.000000 0.000000 3.000000
v 3.000000 2.500000 3.000000
v 7.000000 0.000000 3.000000
v 7.000000 2.500000 3.000000
vt 1.000000 0.000000
vt 0.000000 1.000000
vt 0.000000 0.000000
vt 1.000000 1.000000
vn 0.0000 0.0000 1.0000
usemtl None
s off
f 127/156/14 130/157/14 128/158/14
f 127/156/14 129/159/14 130/157/14
o 1planta.007_Plano.019
v 3.000000 0.000000 3.000000
v 3.000000 0.000000 3.000000
v 3.000000 2.500000 3.000000
v 0.510000 0.000000 3.000000
v 0.509956 2.500000 3.000000
vt 0.377358 0.000000
vt 0.566037 0.888589
vt 0.754717 0.888589
vt 0.555427 0.640167
vt 0.566037 0.000000
vn 0.0000 0.0000 1.0000
usemtl None
s off
f 133/160/15 135/161/15 134/162/15
f 134/162/15 131/163/15 132/164/15
f 132/164/15 133/160/15 134/162/15
o 2planta_Plano.001
v 11.014810 2.500000 4.332418
v -0.985190 2.500000 12.332418
v 11.014810 5.000000 12.332418
v 11.014810 2.500000 12.332418
v -0.985190 2.500000 8.999851
v -0.985190 2.500000 4.332419
v -0.985190 5.000000 12.332418
v 11.014810 5.000000 4.332418
v -0.985190 5.000000 4.332419
v -0.985190 2.500000 4.332419
v 11.014810 2.500000 4.332418
v 11.014810 5.000000 4.332418
v -0.985190 5.000000 4.332419
v -0.985190 2.500000 7.000309
v 11.014810 2.500000 7.000309
v 11.014810 5.000000 7.000309
v -0.985190 5.000000 7.000309
v -0.985190 2.500000 9.666365
v 11.014810 2.500000 9.666363
v 11.014810 5.000000 9.666363
v -0.985190 5.000000 9.666365
v 10.009456 2.500000 12.332418
v 10.009456 5.000000 12.332418
v 10.009456 2.500000 9.666364
v 10.009456 5.000000 9.666364
v -0.985190 2.500000 8.333337
v -0.985190 5.000000 8.999851
v -0.985190 5.000000 8.333337
v 10.009456 2.500000 8.333336
v 10.009456 5.000000 8.333336
v 4.512133 5.000000 8.333337
v 6.522899 5.000000 8.333336
vt 0.800714 0.485140
vt 0.666667 0.712524
vt 0.666667 0.485140
vt 0.666667 0.485140
vt 0.666667 0.485140
vt 0.666667 0.485140
vt 0.666667 0.485140
vt 0.666667 0.485140
vt 0.666667 0.485140
vt 0.333334 0.242653
vt 0.666667 0.000000
vt 0.666667 0.242653
vt 1.000000 0.000000
vt 0.666666 0.242654
vt 0.666666 0.000000
vt 0.333334 0.363897
vt 0.666667 0.363897
vt 0.333334 0.727627
vt 0.666667 0.485140
vt 0.666667 0.727627
vt 1.000000 0.242654
vt 0.666666 0.485141
vt 0.666666 0.242654
vt 0.333334 0.485140
vt 0.666667 0.424519
vt 0.934761 0.712524
vt 0.800714 0.485140
vt 0.934761 0.485140
vt 0.333334 0.424519
vt 0.000000 0.000000
vt 0.333333 0.000000
vt 0.333333 0.500000
vt 0.800714 0.712524
vt 0.666667 0.485140
vt 0.666667 0.485140
vt 0.333334 0.000000
vt 1.000000 0.242654
vt 1.000000 0.485141
vt 0.800714 0.712524
vt 0.333333 0.682886
vt 0.000000 1.000000
vt 0.333333 1.000000
vn 0.0000 0.0000 1.0000
vn -1.0000 0.0000 0.0000
vn 1.0000 0.0000 0.0000
vn -0.0000 0.0000 -1.0000
usemtl paredes
s off
f 139/165/16 158/166/16 157/167/16
f 145/168/16 144/169/16 141/170/16
f 147/171/16 136/172/16 143/173/16
f 152/174/17 145/175/17 149/176/17
f 150/177/18 147/178/18 151/179/18
f 163/180/17 149/176/17 161/181/17
f 142/182/17 153/183/17 137/184/17
f 139/185/18 155/186/18 138/187/18
f 156/188/17 140/189/17 153/183/17
f 160/190/19 154/191/19 159/192/19
f 162/193/17 161/181/17 140/189/17
f 161/194/19 163/195/19 166/196/19
f 139/165/16 138/197/16 158/166/16
f 145/168/16 148/198/16 144/169/16
f 147/171/16 146/199/16 136/172/16
f 152/174/17 148/200/17 145/175/17
f 150/177/18 146/201/18 147/178/18
f 163/180/17 152/174/17 149/176/17
f 142/182/17 156/188/17 153/183/17
f 139/185/18 154/202/18 155/186/18
f 156/188/17 162/193/17 140/189/17
f 160/190/19 155/203/19 154/191/19
f 162/193/17 163/180/17 161/181/17
f 166/196/19 167/204/19 164/205/19
f 167/204/19 165/206/19 164/205/19
f 166/196/19 164/205/19 161/194/19
o 2plantatecho_Plano.016
v 11.014810 5.000000 12.332418
v 10.009456 5.000000 8.999849
v -0.985190 5.000000 12.332418
v -0.985190 5.000000 4.332419
v -0.985190 5.000000 4.332419
v -0.985190 5.000000 7.000309
v 11.014810 5.000000 9.666363
v -0.985190 5.000000 9.666365
v 10.009455 5.000000 4.332418
v 10.009456 5.000000 12.332418
v 10.009455 5.000000 4.332418
v 10.009456 5.000000 7.000309
v 10.009456 5.000000 9.666364
v 4.512132 5.000000 4.332418
v 4.512133 5.000000 12.332418
v 4.512132 5.000000 4.332418
v 4.512133 5.000000 7.000309
v 4.512133 5.000000 9.666364
v 6.522898 5.000000 4.332418
v 6.522899 5.000000 12.332418
v 6.522898 5.000000 4.332418
v 6.522898 5.000000 7.000309
v 6.522899 5.000000 9.666364
v -0.985190 5.000000 8.999851
v -0.985190 5.000000 8.333337
v 10.009456 5.000000 8.333336
v 4.512133 5.000000 8.333337
v 6.522899 5.000000 8.333336
v 4.512133 5.000000 8.999850
v 6.522899 5.000000 8.999849
vt 0.333256 0.083779
vt 0.416570 0.374326
vt 0.333256 0.374326
vt 0.333256 0.541890
vt 0.416570 1.000000
vt 0.333256 1.000000
vt 0.000000 0.000000
vt 0.000000 0.083779
vt 0.000000 0.374326
vt 0.416570 0.541890
vt 0.499885 0.374326
vt 0.666514 0.083779
vt 0.666514 0.374326
vt 1.000000 0.083779
vt 1.000000 0.374326
vt 1.000000 0.000000
vt 1.000000 0.000000
vt 1.000000 0.000000
vt 1.000000 0.000000
vt 1.000000 0.000000
vt 1.000000 0.000000
vt 0.666514 0.541890
vt 1.000000 1.000000
vt 0.666514 1.000000
vt 0.499885 0.541890
vt 0.499885 1.000000
vt 0.000000 0.541890
vt 0.000000 1.000000
vt 1.000000 0.000000
vt 1.000000 0.541890
vt 0.416570 0.083779
vt 0.333256 0.000000
vt 0.499885 0.083779
vt 1.000000 0.000000
vn 0.0000 1.0000 0.0000
vn 0.0000 0.0000 1.0000
usemtl paredes
s off
f 180/207/20 197/208/20 190/209/20
f 185/210/20 191/211/20 175/212/20
f 168/213/20 180/207/20 177/214/20
f 177/214/20 190/209/20 187/215/20
f 190/209/20 196/216/20 185/210/20
f 195/217/20 179/218/20 189/219/20
f 189/219/20 178/220/20 188/221/20
f 188/222/21 176/223/21 186/224/21
f 172/225/21 181/226/21 171/227/21
f 184/228/20 172/229/20 173/230/20
f 194/231/20 173/230/20 192/232/20
f 182/233/20 175/212/20 170/234/20
f 183/235/21 186/224/21 181/226/21
f 184/228/20 188/221/20 183/236/20
f 194/231/20 189/219/20 184/228/20
f 187/215/20 185/210/20 182/233/20
f 197/208/20 194/231/20 196/216/20
f 196/216/20 192/232/20 191/211/20
f 169/237/20 195/217/20 197/208/20
f 180/207/20 169/237/20 197/208/20
f 185/210/20 196/216/20 191/211/20
f 168/213/20 174/238/20 180/207/20
f 177/214/20 180/207/20 190/209/20
f 190/209/20 197/208/20 196/216/20
f 195/217/20 193/239/20 179/218/20
f 189/219/20 179/218/20 178/220/20
f 188/222/21 178/240/21 176/223/21
f 172/225/21 183/235/21 181/226/21
f 184/228/20 183/236/20 172/229/20
f 194/231/20 184/228/20 173/230/20
f 182/233/20 185/210/20 175/212/20
f 183/235/21 188/222/21 186/224/21
f 184/228/20 189/219/20 188/221/20
f 194/231/20 195/217/20 189/219/20
f 187/215/20 190/209/20 185/210/20
f 197/208/20 195/217/20 194/231/20
f 196/216/20 194/231/20 192/232/20
f 169/237/20 193/239/20 195/217/20
o 2plantatextura_Plano.014
v 10.009456 5.000000 8.999849
v 10.009455 2.500000 4.332418
v 10.009455 5.000000 4.332418
v 10.009455 2.500000 4.332418
v 10.009455 5.000000 4.332418
v 10.009456 5.000000 7.000309
v 10.009456 2.500000 7.000309
v 10.009456 2.500000 8.999849
v 10.009456 2.500000 8.333336
v 10.009456 5.000000 8.333336
vt 0.831135 -0.254979
vt 0.831135 1.254980
vt 0.452583 1.254980
vt 0.168865 1.254980
vt 0.168865 -0.254979
vt 0.263438 -0.254979
vt 0.168865 -0.254980
vt 0.168865 -0.254980
vt 0.168865 -0.254980
vt 0.263438 1.254980
vt 0.452583 -0.254979
vt 0.168865 -0.254980
vt 0.168865 -0.254980
vt 0.168865 -0.254980
vn 1.0000 0.0000 -0.0000
vn 0.0000 0.0000 1.0000
usemtl pared.gris
s off
f 199/241/22 200/242/22 203/243/22
f 198/244/22 205/245/22 206/246/22
f 204/247/23 201/248/23 199/249/23
f 198/244/22 206/246/22 207/250/22
f 206/246/22 204/251/22 207/250/22
f 203/243/22 207/250/22 204/251/22
f 203/243/22 204/251/22 199/241/22
f 200/252/23 202/253/23 203/254/23
o Plano.003
v -0.985190 2.500000 12.332418
v -0.985190 5.000000 12.332418
v 4.512133 5.000000 12.332418
v 4.512134 2.500000 12.332418
vt 0.000000 1.000000
vt 1.000000 0.000000
vt 1.000000 1.000000
vt 0.000000 0.000000
vn 0.0000 0.0000 1.0000
usemtl None
s off
f 208/255/24 210/256/24 209/257/24
f 208/255/24 211/258/24 210/256/24
o Plano.004
v 4.512133 5.000000 12.332418
v 4.512134 2.500000 12.332418
v 6.522899 2.500000 12.332418
v 6.522899 5.000000 12.332418
vt 0.000001 0.000000
vt 1.000000 1.000000
vt 0.000000 1.000000
vt 1.000000 0.000000
vn 0.0000 0.0000 1.0000
usemtl None
s off
f 213/259/25 215/260/25 212/261/25
f 213/259/25 214/262/25 215/260/25
o Plano.005
v 10.009456 2.500000 12.332418
v 10.009456 5.000000 12.332418
v 6.522899 2.500000 12.332418
v 6.522899 5.000000 12.332418
vt 1.000000 0.000000
vt 0.000000 1.000000
vt 0.000000 0.000000
vt 1.000000 1.000000
vn 0.0000 0.0000 1.0000
usemtl None
s off
f 216/263/26 219/264/26 218/265/26
f 216/263/26 217/266/26 219/264/26
o Plano.006
v 10.009455 2.500000 4.332418
v 10.009455 5.000000 4.332418
v 6.522898 2.500000 4.332418
v 6.522898 5.000000 4.332418
vt 1.000000 1.000000
vt 0.000000 0.000000
vt 1.000000 0.000000
vt 0.000000 1.000000
vn 0.0000 0.0000 -1.0000
usemtl None
s off
f 223/267/27 220/268/27 222/269/27
f 223/267/27 221/270/27 220/268/27
o Plano.007
v 4.512132 5.000000 4.332418
v 4.512133 2.500000 4.332418
v 6.522898 2.500000 4.332418
v 6.522898 5.000000 4.332418
vt 1.000000 1.000000
vt 0.000000 0.000000
vt 1.000000 0.000000
vt 0.000000 1.000000
vn 0.0000 0.0000 -1.0000
usemtl None
s off
f 224/271/28 226/272/28 225/273/28
f 224/271/28 227/274/28 226/272/28
o Plano.008
v -0.985190 2.500000 4.332419
v -0.985190 5.000000 4.332419
v 4.512132 5.000000 4.332418
v 4.512133 2.500000 4.332418
vt 0.000000 0.000000
vt 1.000000 1.000000
vt 0.000000 1.000000
vt 1.000000 0.000000
vn -0.0000 -0.0000 -1.0000
usemtl None
s off
f 228/275/29 230/276/29 231/277/29
f 228/275/29 229/278/29 230/276/29
o Plano.009
v 10.009456 5.000000 8.999849
v 10.009456 2.500000 9.666364
v 10.009456 5.000000 9.666364
v 10.009456 2.500000 8.999849
vt 1.000000 0.000000
vt 0.000000 1.000000
vt 0.000000 0.000000
vt 0.999996 1.000000
vn 1.0000 0.0000 0.0000
usemtl None
s off
f 235/279/30 234/280/30 233/281/30
f 235/279/30 232/282/30 234/280/30
