# Blender v2.93.0 OBJ File: 'casaLeo.blend'
# www.blender.org
mtllib casaLeo.mtl
o 1planta_paredes_Plano
v -1.000000 0.000000 -1.000000
v 11.000000 0.000000 -1.000000
v -1.000000 0.000000 -1.000000
v -1.000000 0.000000 -1.000000
v 11.000000 0.000000 3.000000
v -1.000000 0.000000 15.000000
v 3.000000 0.000000 15.000000
v 11.000000 0.000000 -1.000000
v -1.000000 0.000000 -1.000000
v -1.000000 0.000000 15.000000
v 11.000000 0.000000 11.000000
v 3.000000 0.000000 11.000000
v 11.000000 0.000000 15.000000
v 11.000000 2.500000 -1.000000
v -1.000000 2.500000 -1.000000
v 11.000000 2.500000 3.000000
v 11.000000 2.500000 11.000000
v 3.000000 2.500000 11.000000
v 3.000000 2.500000 15.000000
v 11.000000 2.500000 15.000000
v 6.000000 0.000000 15.000000
v 7.000000 0.000000 15.000000
v 10.000000 0.000000 15.000000
v 6.000000 2.500000 15.000000
v 7.000000 2.500000 15.000000
v 10.000000 2.500000 15.000000
v 6.500000 0.000000 15.000000
v 6.500000 2.500000 15.000000
v 7.500000 0.000000 15.000000
v 7.500000 2.500000 15.000000
v 9.500000 0.000000 15.000000
v 9.500000 2.500000 15.000000
v 8.500000 0.000000 15.000000
v 8.750000 0.000000 15.000000
v 8.500000 2.500000 15.000000
v 8.750000 2.500000 15.000000
v -1.000000 2.500000 15.000000
v 11.000000 0.000000 2.004559
v 11.000000 0.000000 2.004559
v 11.000000 2.500000 2.004559
v 0.510000 0.000000 -1.000000
v 0.509956 2.500000 -1.000000
v -1.000000 0.000000 -1.000000
v 0.510000 0.000000 3.000000
v 0.509956 2.500000 3.000000
v -1.000000 0.000000 -1.000000
v -1.000000 2.500000 4.375162
v -1.000000 0.000000 4.375162
v -1.000000 2.500000 11.004000
v -1.000000 0.000000 11.004000
v 11.000000 0.000000 4.300759
v 11.000000 2.500000 4.300759
v 8.750000 0.000000 18.000000
v 8.750000 0.000000 18.000000
v -1.000000 0.000000 15.000000
v -6.000000 0.000000 15.000000
v -1.000000 0.000000 15.000000
v -6.000000 0.000000 15.000000
vt 0.436458 0.000000
vt 0.103920 0.103918
vt 0.103920 0.000000
vt 0.249405 0.311754
vt 0.290972 0.207836
vt 0.290972 0.311754
vt 0.314056 0.207836
vt 0.282880 0.103918
vt 0.314056 0.103918
vt 0.290972 0.311754
vt 0.311756 0.207836
vt 0.311756 0.311754
vt 0.103920 0.207836
vt 0.228811 0.103918
vt 0.228811 0.207836
vt 0.103918 0.166270
vt 0.000000 0.229035
vt 0.000000 0.166269
vt 0.103920 0.000001
vt 0.436458 0.103918
vt 0.249405 0.207836
vt 0.290972 0.207836
vt 0.249405 0.311754
vt 0.207838 0.207836
vt 0.249405 0.207836
vt 0.207838 0.207836
vt 0.103920 0.332538
vt 0.103920 0.207836
vt 0.103920 0.103918
vt 0.103918 0.229035
vt 0.000002 0.000000
vt 0.282880 0.207836
vt 0.207838 0.311754
vt 0.207838 0.332538
vt 0.000002 0.452466
vt 0.103920 0.452465
vt 0.453708 0.989038
vt 0.470871 1.000000
vt 0.453607 0.999839
vt 0.228811 0.103918
vt 0.282880 0.207836
vt 0.228811 0.207836
vt 0.470972 0.989199
vt 0.282880 0.103918
vt 0.000000 0.000000
vt 0.000000 0.000000
vt 0.000000 0.000000
vt 0.000000 0.000000
vn 0.0000 0.0000 -1.0000
vn 0.0000 0.0000 1.0000
vn -1.0000 0.0000 0.0000
vn 1.0000 0.0000 0.0000
usemtl paredes
s off
f 12/1/1 17/2/1 11/3/1
f 13/4/2 26/5/2 23/6/2
f 34/7/2 32/8/2 36/9/2
f 22/10/2 28/11/2 27/12/2
f 39/13/3 14/14/3 8/15/3
f 42/16/2 1/17/2 41/18/2
f 41/18/3 45/19/3 42/16/3
f 12/1/1 18/20/1 17/2/1
f 13/4/2 20/21/2 26/5/2
f 22/10/2 25/22/2 28/11/2
f 29/23/2 35/24/2 30/25/2
f 7/26/2 24/27/2 19/28/2
f 39/13/3 40/29/3 14/14/3
f 42/16/2 15/30/2 1/17/2
f 41/18/3 44/31/3 45/19/3
f 34/7/2 31/32/2 32/8/2
f 29/23/2 33/33/2 35/24/2
f 7/26/2 21/34/2 24/27/2
f 48/35/4 15/30/4 47/36/4
f 10/37/4 49/38/4 37/39/4
f 5/40/3 52/41/3 16/42/3
f 48/35/4 1/17/4 15/30/4
f 10/37/4 50/43/4 49/38/4
f 5/40/3 51/44/3 52/41/3
f 55/45/2 58/46/2 57/47/2
f 55/45/2 56/48/2 58/46/2
l 1 3
l 3 4
l 10 6
l 2 38
l 38 39
l 4 9
l 53 54
o 1planta_pared_frontal_Plano.013
v 3.000000 0.000000 11.000000
v 3.000000 0.000000 13.000000
v 3.000000 2.500000 11.000000
v 3.000000 2.500000 13.000000
v 3.000000 0.000000 13.000000
v 3.000000 2.500000 13.000000
v 9.000000 0.000000 13.000000
v 9.000000 2.500000 13.000000
v 9.000000 0.000000 11.000000
v 9.000000 0.000000 13.000000
v 9.000000 2.500000 11.000000
v 9.000000 2.500000 13.000000
v -1.000000 0.000000 11.000000
v -1.000000 2.500000 11.000000
v 3.000000 2.500000 11.000000
v 1.963893 0.000000 11.000000
v 3.000000 1.956157 11.000000
v 1.963893 1.956157 11.000000
vt 0.000000 0.000000
vt 1.000000 1.000000
vt 0.000000 1.000000
vt 0.259027 0.205295
vt 0.000000 0.000000
vt 1.000000 0.000000
vt 0.000000 0.000000
vt 1.000000 1.000000
vt 0.000000 1.000000
vt 1.000000 0.000000
vt 1.000000 0.943725
vt 0.259027 0.943725
vt 0.000000 0.205295
vt 1.000000 0.000000
vt 0.000000 1.000000
vt 1.000000 0.000000
vt 1.000000 1.000000
vt -0.000000 0.000000
vn 1.0000 0.0000 0.0000
vn 0.0000 0.0000 1.0000
vn -1.0000 0.0000 0.0000
usemtl pared.gris
s off
f 68/49/5 69/50/5 70/51/5
f 76/52/6 73/53/6 72/54/6
f 59/55/7 62/56/7 61/57/7
f 68/49/5 67/58/5 69/50/5
f 72/54/6 71/59/6 76/52/6
f 71/59/6 74/60/6 76/52/6
f 76/52/6 75/61/6 73/53/6
f 59/55/7 60/62/7 62/56/7
usemtl Material.006
f 64/63/6 65/64/6 66/65/6
f 64/63/6 63/66/6 65/64/6
o 1planta_piso_Plano.015
v 11.000000 0.000000 15.000000
v -1.000000 0.000000 -1.000000
v -1.000000 0.000000 15.000000
v 11.000000 0.000000 -1.000000
vt 0.750000 0.000000
vt 0.000000 1.000000
vt 0.000000 0.000000
vt 0.750000 1.000000
vn 0.0000 1.0000 0.0000
usemtl paredes
s off
f 78/67/8 77/68/8 80/69/8
f 78/67/8 79/70/8 77/68/8
o 1planta_techo_Plano.017
v 11.000000 2.500000 15.000000
v -1.000000 2.500000 -1.000000
v -1.000000 2.500000 15.000000
v 11.000000 2.500000 -1.000000
vt 1.000000 0.000000
vt 0.000000 1.000000
vt 0.000000 0.000000
vt 1.000000 1.000000
vn 0.0000 1.0000 0.0000
usemtl paredes
s off
f 82/71/9 81/72/9 84/73/9
f 82/71/9 83/74/9 81/72/9
o concreto_Plano.002
v 10.000000 0.000000 -5.000000
v 10.000000 0.000000 -10.000000
v 4.000000 0.000000 -5.000000
v 4.000000 0.000000 -10.000000
v 4.140285 0.000000 -5.140284
v 9.859715 0.000000 -5.140284
v 9.859715 0.000000 -9.859716
v 4.140285 0.000000 -9.859716
v 4.140285 -0.200000 -5.140284
v 4.140285 -0.200000 -9.859716
v 9.859715 -0.200000 -5.140284
v 9.859715 -0.200000 -9.859716
v 10.000000 0.000000 -5.000000
v 11.000000 0.000000 -5.000000
v 10.000000 0.000000 -10.000000
v 11.000000 0.000000 -10.000000
v -1.000000 0.000000 -5.000000
v -1.000000 0.000000 -10.000000
v 4.000000 0.000000 -1.000000
v -1.000000 0.000000 -1.000000
v 3.000000 0.000000 15.000000
v 11.000000 0.000000 15.000000
v 8.750000 0.000000 15.000000
v -1.000000 0.000000 11.000000
v 8.750000 0.000000 18.000000
v 11.000000 0.000000 18.000000
v 3.000000 0.000000 18.000000
v -1.000000 0.000000 15.000000
v -1.000000 0.000000 18.000000
v -6.000000 0.000000 15.000000
v -6.000000 0.000000 18.000000
v -6.000000 0.000000 11.000000
v 3.000000 0.000000 35.000000
v -1.000000 0.000000 35.000000
v -6.000000 0.000000 35.000000
vt 0.437396 0.757754
vt 0.907376 0.783215
vt 0.887251 0.767649
vt 0.436630 0.352571
vt 0.426334 0.341067
vt 0.906611 0.378033
vt 0.917672 0.794720
vt 0.917672 0.368387
vt 0.426334 0.767400
vt 0.891469 0.396714
vt 0.452538 0.739073
vt 0.456755 0.368138
vt 0.000000 0.000000
vt 0.000000 0.200000
vt 1.000000 0.200000
vt 0.999999 0.000000
vt 0.000000 0.000001
vt 0.000000 1.000000
vt 0.000000 0.800000
vt 1.000000 0.800000
vt 1.000000 0.000000
vt 0.800000 1.000000
vt 0.800000 0.000000
vt 0.000000 0.000000
vt 0.750000 1.000000
vt 0.750000 0.000000
vt 0.000000 0.000000
vt 0.000000 1.000000
vt 0.750000 1.000000
vt 0.750000 0.000000
vt 0.000000 0.000000
vt 0.000000 0.600000
vt 1.000000 0.600000
vt 1.000000 0.000000
vt 0.999999 0.999999
vt 0.000000 0.000000
vt 0.000000 1.000000
vt 0.000000 1.000000
vt 1.000000 0.000000
vt 1.000000 0.294118
vt 0.000000 0.000000
vt 1.000000 0.235294
vt 1.000000 0.000000
vt 0.000000 0.000000
vt 0.000000 0.294118
vt 0.000000 0.235294
vn 0.0000 0.0000 1.0000
vn 0.0000 1.0000 0.0000
vn 1.0000 0.0000 0.0000
vn -1.0000 0.0000 0.0000
vn 0.0000 0.0000 -1.0000
vn 0.0000 -1.0000 0.0000
usemtl concreto
s off
f 91/75/10 92/76/10 94/77/10
f 91/75/11 90/78/11 85/79/11
f 89/80/11 92/76/11 88/81/11
f 90/78/11 89/80/11 87/82/11
f 92/76/11 91/75/11 86/83/11
f 92/76/12 89/80/12 93/84/12
f 90/78/13 91/75/13 96/85/13
f 89/80/14 90/78/14 95/86/14
f 98/87/15 97/88/15 99/89/15
f 87/90/11 88/91/11 102/92/11
f 87/93/11 101/94/11 104/95/11
f 112/96/15 114/97/15 116/98/15
f 107/99/11 109/100/11 110/101/11
f 111/102/11 105/103/11 112/104/11
f 113/105/11 112/106/11 114/107/11
f 91/75/10 94/77/10 96/85/10
f 91/75/11 85/79/11 86/83/11
f 89/80/11 88/81/11 87/82/11
f 90/78/11 87/82/11 85/79/11
f 92/76/11 86/83/11 88/81/11
f 92/76/12 93/84/12 94/77/12
f 90/78/13 96/85/13 95/86/13
f 89/80/14 95/86/14 93/84/14
f 98/87/15 99/89/15 100/108/15
f 87/90/11 102/92/11 101/109/11
f 87/93/11 104/95/11 103/110/11
f 112/96/15 116/98/15 108/111/15
f 107/99/11 110/101/11 106/112/11
f 111/102/11 112/104/11 113/105/11
f 113/105/11 114/107/11 115/113/11
f 113/114/11 115/113/11 119/115/11
f 111/116/11 113/117/11 118/118/11
f 113/114/11 119/115/11 118/119/11
f 111/116/11 118/118/11 117/120/11
o pasto_Plano.003
v 11.000000 0.000000 15.000000
v -1.000000 0.000000 -1.000000
v 11.000000 0.000000 -1.000000
v 11.000000 0.000000 35.000000
v -21.000000 0.000000 -1.000000
v -21.000000 0.000000 15.000000
v -21.000000 0.000000 35.000000
v -1.000000 0.000000 -21.000000
v 11.000000 0.000000 -21.000000
v -21.000000 0.000000 -21.000000
v 31.000000 0.000000 15.000000
v 31.000000 0.000000 -1.000000
v 31.000000 0.000000 35.000000
v 31.000000 0.000000 -21.000000
v 4.000000 0.000000 -5.000000
v 11.000000 0.000000 -10.000000
v -1.000000 0.000000 -10.000000
v 4.000000 0.000000 -1.000000
v 11.000000 0.000000 -5.000000
v 11.000000 0.000000 -1.000000
v 11.000000 0.000000 -21.000000
v -1.000000 0.000000 -21.000000
v -5.971001 0.000000 15.000000
v -5.971001 0.000000 -1.000000
v -5.971001 0.000000 35.000000
v -5.971001 0.000000 -21.000000
v -1.000000 0.000000 11.004232
v -21.000000 0.000000 11.004232
v -5.971001 0.000000 11.004232
v -21.000000 0.000000 17.989130
v -5.971001 0.000000 17.989130
v 3.000000 0.000000 15.000000
v 8.750000 0.000000 15.000000
v 8.750000 0.000000 18.000000
v 3.000000 0.000000 18.000000
v 11.000000 0.000000 18.000000
v 3.000000 0.000000 35.000000
vt 0.232688 0.000000
vt 0.936181 0.750264
vt 0.232688 0.750264
vt 0.562795 1.000000
vt 0.000000 0.850543
vt 0.562795 0.850543
vt 0.748945 1.000000
vt 0.000000 0.751450
vt 0.748945 0.751450
vt 0.748945 1.000000
vt 0.000000 0.000000
vt 0.748945 0.000000
vt 0.748945 1.000000
vt 0.000000 0.000000
vt 0.748945 0.000000
vt 0.936181 1.000000
vt 0.000000 0.000000
vt 0.936181 0.000000
vt 0.000000 1.000000
vt 0.427969 0.000000
vt 0.427969 1.000000
vt 0.817031 0.000000
vt 0.000000 1.000000
vt 0.000000 0.000000
vt 0.000000 0.000000
vt 0.748945 0.000000
vt 0.000000 0.000000
vt 0.000000 0.750264
vt 0.936181 1.000000
vt 0.232688 1.000000
vt 0.000000 0.000000
vt 0.562795 0.000000
vt 1.000000 0.000000
vt 0.000000 0.696632
vt 0.000000 0.000000
vt 0.936181 0.000000
vt 0.000000 1.000000
vt 0.000000 1.000000
vt 0.000000 1.000000
vt 0.000000 1.000000
vt 0.000000 1.000000
vt 0.000000 0.000000
vt 1.000000 0.000000
vt 0.000000 0.628335
vt 0.000000 0.000000
vt 0.817031 1.000000
vt 1.000000 0.696632
vt 1.000000 0.628335
vn 0.0000 1.0000 0.0000
vn 0.0000 -1.0000 0.0000
usemtl pasto
s off
f 143/121/16 147/122/16 148/123/16
f 142/124/16 149/125/16 150/126/16
f 121/127/16 145/128/16 143/129/16
f 122/130/16 133/131/16 128/132/16
f 123/133/16 130/134/16 120/135/16
f 120/136/16 131/137/16 122/138/16
f 134/139/17 139/140/17 137/141/17
f 127/142/16 135/143/16 128/144/16
f 143/129/16 129/145/16 124/146/16
f 121/147/16 148/123/16 146/148/16
f 148/123/16 125/149/16 142/150/16
f 150/126/16 126/151/16 144/152/16
f 154/153/17 152/154/17 153/155/17
f 143/121/16 124/156/16 147/122/16
f 142/124/16 125/157/16 149/125/16
f 121/127/16 127/158/16 145/128/16
f 122/130/16 131/159/16 133/131/16
f 123/133/16 132/160/16 130/134/16
f 120/136/16 130/161/16 131/137/16
f 134/139/17 138/162/17 139/140/17
f 143/129/16 145/128/16 129/145/16
f 121/147/16 143/121/16 148/123/16
f 148/123/16 147/122/16 125/149/16
f 150/126/16 149/125/16 126/151/16
f 123/163/17 154/164/17 155/165/17
f 127/142/16 136/166/16 135/143/16
f 154/153/17 151/167/17 152/154/17
f 123/163/17 156/168/17 154/164/17
l 136 141
l 135 140
o agua_Plano.005
v 4.140285 -0.200000 -5.140284
v 4.140285 -0.200000 -9.859716
v 9.859715 -0.200000 -5.140284
v 9.859715 -0.200000 -9.859716
vt 0.000000 0.000000
vt 0.000000 1.000000
vt 0.807926 1.000000
vt 0.807926 0.000000
vn 0.0000 1.0000 0.0000
usemtl Material.001
s off
f 159/169/18 160/170/18 158/171/18
f 159/169/18 158/171/18 157/172/18
o 2planta_paredes_Plano.001
v 11.014810 2.500000 4.332418
v -0.985190 2.500000 12.332418
v 11.014810 5.000000 12.332418
v 11.014810 2.500000 12.332418
v -0.985190 2.500000 4.332419
v -0.985190 5.000000 12.332418
v -0.985190 5.000000 4.332419
v 11.014810 2.500000 4.332418
v 11.014810 5.000000 4.332418
v 11.014810 2.500000 9.666363
v 11.014810 5.000000 9.666363
v 10.009456 2.500000 12.332418
v 10.009456 5.000000 12.332418
v 10.009456 2.500000 9.666364
v 10.009456 5.000000 9.666364
v -0.985190 2.500000 8.333337
v -0.985190 5.000000 8.333337
v 10.009456 2.500000 8.333336
v 10.009456 5.000000 8.333336
v 2.998929 5.000000 8.333336
v 2.998929 2.500000 8.333336
v 1.509976 5.000000 8.333336
v 1.509976 2.500000 8.333336
vt 1.000000 0.000000
vt 0.000000 1.000000
vt 0.000000 0.000000
vt 0.000000 0.637631
vt 1.000000 0.000000
vt 1.000000 0.637631
vt 1.000000 0.333257
vt 1.000000 1.000000
vt 0.000000 1.000000
vt 0.000000 0.000000
vt 1.000000 1.000000
vt 0.000000 1.000000
vt 0.000000 0.000000
vt 1.000000 0.500115
vt 0.000000 0.500115
vt 0.000000 1.000000
vt 1.000000 0.773056
vt 1.000000 1.000000
vt 1.000000 1.000000
vt 0.000000 0.000000
vt 0.000000 0.333257
vt 0.000000 0.000000
vt 1.000000 0.000000
vt 1.000000 1.000000
vt 0.000000 1.000000
vt 1.000000 0.000000
vt 0.000000 0.773056
vn 0.0000 0.0000 -1.0000
vn 1.0000 0.0000 0.0000
vn 0.0000 0.0000 1.0000
vn -1.0000 0.0000 0.0000
usemtl paredes
s off
f 174/173/19 171/174/19 170/175/19
f 180/176/19 178/177/19 181/178/19
f 170/179/20 161/180/20 169/181/20
f 172/182/21 163/183/21 173/184/21
f 167/185/22 176/186/22 177/187/22
f 177/188/19 183/189/19 176/190/19
f 174/173/19 175/191/19 171/174/19
f 180/176/19 179/192/19 178/177/19
f 169/181/20 171/193/20 170/179/20
f 171/193/20 163/194/20 170/179/20
f 163/194/20 164/195/20 170/179/20
f 172/182/21 164/195/21 163/183/21
f 176/186/22 162/196/22 166/197/22
f 176/186/22 166/197/22 177/187/22
f 167/185/22 165/198/22 176/186/22
f 177/188/19 182/199/19 183/189/19
o 2plantatecho_Plano.016
v 11.014810 5.000000 12.332418
v -0.985190 5.000000 12.332418
v -0.985190 5.000000 4.332419
v 11.014810 5.000000 9.666363
v 10.009455 5.000000 4.332418
v 10.009456 5.000000 9.666364
vt 0.000000 1.000000
vt 0.000000 0.000000
vt 0.333256 0.083779
vt 1.000000 0.000000
vt 1.000000 0.000000
vt 0.333256 0.000000
vn 0.0000 1.0000 -0.0000
usemtl paredes
s off
f 185/200/23 184/201/23 189/202/23
f 189/202/23 188/203/23 186/204/23
f 184/201/23 187/205/23 189/202/23
f 186/204/23 185/200/23 189/202/23
o 2plantatextura_Plano.014
v 10.009456 5.000000 8.999849
v 10.009455 2.500000 4.332418
v 10.009455 5.000000 4.332418
v 10.009456 2.500000 8.999849
vt 0.000000 0.000001
vt 1.000000 0.808775
vt 0.000000 0.808775
vt 1.000000 0.000000
vn 1.0000 0.0000 -0.0000
usemtl pared.gris
s off
f 193/206/24 192/207/24 190/208/24
f 193/206/24 191/209/24 192/207/24
