# Blender v2.93.0 OBJ File: 'ventanales_sup.blend'
# www.blender.org
mtllib ventanales_sup.mtl
o 2planta_paredes.006_Plano.011
v 5.140244 5.000000 12.332418
v 6.763315 5.000000 12.332418
v 8.386385 5.000000 12.332418
v 5.140244 2.500000 12.332418
v 6.763315 2.500000 12.332418
v 8.386385 2.500000 12.332418
vt 0.704753 1.000000
vt 0.852376 0.000000
vt 0.852376 1.000000
vt 0.557129 1.000000
vt 0.704753 0.000000
vt 0.557129 0.000000
vn 0.0000 0.0000 1.0000
usemtl amarillo
s off
f 2/1/1 6/2/1 3/3/1
f 1/4/1 5/5/1 2/1/1
f 2/1/1 5/5/1 6/2/1
f 1/4/1 4/6/1 5/5/1
o 2planta_paredes.007_Plano.012
v 5.146269 2.500000 4.332931
v 6.767331 2.500000 4.333066
v 8.388393 2.500000 4.333200
v 5.146269 5.000000 4.332931
v 6.767331 5.000000 4.333066
v 8.388393 5.000000 4.333200
vt 1.000000 0.557677
vt 0.000000 0.705118
vt 0.000000 0.557677
vt 1.000000 0.705118
vt 0.000000 0.852559
vt 1.000000 0.852559
vn 0.0001 0.0000 -1.0000
usemtl cristal
s off
f 10/7/2 8/8/2 7/9/2
f 11/10/2 9/11/2 8/8/2
f 10/7/2 11/10/2 8/8/2
f 11/10/2 12/12/2 9/11/2
