# Blender v2.93.0 OBJ File: 'ventanal_lat.blend'
# www.blender.org
mtllib ventanal_lat.mtl
o 1planta_paredes.005_Plano.014
v -1.000000 2.500000 6.032371
v -1.000000 2.500000 7.689581
v -1.000000 2.500000 9.346790
v -1.000000 0.000000 6.032371
v -1.000000 0.000000 7.689581
v -1.000000 0.000000 9.346790
vt 1.000000 0.750000
vt 0.000000 0.500000
vt 0.000000 0.750000
vt 1.000000 0.500000
vt 0.000000 0.250000
vt 1.000000 0.250000
vn 1.0000 0.0000 0.0000
usemtl cristal
s off
f 1/1/1 5/2/1 4/3/1
f 2/4/1 6/5/1 5/2/1
f 1/1/1 2/4/1 5/2/1
f 2/4/1 3/6/1 6/5/1
o 1planta_paredes.007_Plano.016
v 11.000000 2.500000 9.325190
v 11.000000 2.500000 7.650379
v 11.000000 2.500000 5.975569
v 11.000000 0.000000 9.325190
v 11.000000 0.000000 7.650379
v 11.000000 0.000000 5.975569
vt 0.750000 1.000000
vt 0.500000 0.000000
vt 0.750000 0.000000
vt 0.500000 1.000000
vt 0.250000 0.000000
vt 0.250000 1.000000
vn -1.0000 0.0000 0.0000
usemtl cristal
s off
f 7/7/2 11/8/2 10/9/2
f 8/10/2 12/11/2 11/8/2
f 7/7/2 8/10/2 11/8/2
f 8/10/2 9/12/2 12/11/2
