# Blender v2.93.0 OBJ File: 'ventanal_sup.blend'
# www.blender.org
mtllib ventanal_sup.mtl
o 2planta_paredes.005_Plano.001
v 1.849647 5.000000 12.332418
v 0.681664 5.000000 12.332418
v 0.681664 2.500000 12.332418
v 1.849647 2.500000 12.332418
vt 0.151606 1.000000
vt 0.257838 0.000000
vt 0.257838 1.000000
vt 0.151606 0.000000
vn 0.0000 0.0000 1.0000
usemtl amarillo
s off
f 2/1/1 4/2/1 1/3/1
f 2/1/1 3/4/1 4/2/1
o 2planta_paredes.008_Plano.013
v 1.850047 2.500000 4.332656
v 0.683113 2.500000 4.332559
v 0.683113 5.000000 4.332559
v 1.850047 5.000000 4.332656
vt 1.000000 0.151738
vt 0.000000 0.257874
vt 0.000000 0.151738
vt 1.000000 0.257874
vn 0.0001 0.0000 -1.0000
usemtl cristal
s off
f 7/5/2 5/6/2 6/7/2
f 7/5/2 8/8/2 5/6/2
