# Blender v2.93.0 OBJ File: 'camastro.blend'
# www.blender.org
mtllib camastro.mtl
o colchon_Plane
v 0.500000 0.499113 -1.625000
v -0.500000 0.499113 -1.625000
v 0.500000 0.499113 0.375000
v -0.500000 0.499113 0.375000
v 0.500000 0.499113 -1.625000
v -0.500000 0.499113 -1.625000
v 0.500000 0.499113 0.375000
v -0.500000 0.499113 0.375000
v 0.500000 0.549113 -1.625000
v -0.500000 0.549113 -1.625000
v 0.500000 0.549113 0.375000
v -0.500000 0.549113 0.375000
v 0.500000 0.499113 0.375000
v -0.500000 0.499113 0.375000
v 0.500000 0.549113 0.375000
v -0.500000 0.549113 0.375000
v 0.500000 0.998936 1.375000
v -0.500000 0.998936 1.375000
v 0.500000 1.048936 1.375000
v -0.500000 1.048936 1.375000
vt 0.926846 0.000000
vt 0.949452 0.906609
vt 0.926846 0.906609
vt 0.000000 0.882371
vt 0.000000 0.882371
vt 0.000000 0.882371
vt 0.000000 0.882371
vt 0.000000 0.882371
vt 0.000000 0.882371
vt 0.000000 0.882371
vt 0.000000 0.882371
vt 0.000000 0.882371
vt 0.452120 0.000000
vt 0.452120 0.882371
vt 0.989893 0.000000
vt 1.000000 0.453305
vt 0.989893 0.453305
vt 0.904240 0.000000
vt 0.926846 0.906609
vt 0.904240 0.906609
vt 0.949452 0.516908
vt 0.972058 0.970212
vt 0.949452 0.970212
vt 0.000000 0.882371
vt 0.000000 0.882371
vt 0.000000 0.882371
vt 0.000000 0.882371
vt 0.000000 0.882371
vt 0.452120 1.000000
vt 0.904240 0.506774
vt 0.904240 1.000000
vt 0.972058 0.516908
vt 0.994663 0.970212
vt 0.972058 0.970212
vt 0.949452 0.010133
vt 0.969672 0.506774
vt 0.949452 0.516908
vt 0.452120 0.506774
vt 0.904240 0.000000
vt 0.904240 0.506774
vt 0.989893 0.010133
vt 0.969672 0.506774
vt 0.969672 0.000000
vt 0.949452 0.000000
vt 0.000000 0.000000
vt 1.000000 0.000000
vt 0.926846 0.000000
vt 0.972058 0.516908
vt 0.000000 0.882371
vt 0.452120 0.506774
vt 0.994663 0.516908
vt 0.969672 0.000000
vt 0.452120 0.000000
vt 0.989893 0.516908
vn 1.0000 0.0000 -0.0000
vn 0.0000 0.0000 1.0000
vn 0.0000 1.0000 0.0000
vn -1.0000 0.0000 0.0000
vn 0.0000 0.0000 -1.0000
vn 0.0000 0.8945 -0.4471
vn 0.0000 -0.8945 0.4471
usemtl tela
s off
f 5/1/1 11/2/1 7/3/1
f 3/4/2 5/5/2 7/6/2
f 1/7/2 6/8/2 5/5/2
f 4/9/2 7/6/2 8/10/2
f 2/11/2 8/10/2 6/8/2
f 10/12/3 11/13/3 9/14/3
f 7/15/2 12/16/2 8/17/2
f 8/18/4 10/19/4 6/20/4
f 6/21/5 9/22/5 5/23/5
f 12/24/2 15/25/2 16/26/2
f 3/4/2 14/27/2 13/28/2
f 14/29/6 17/30/6 13/31/6
f 18/32/5 19/33/5 17/34/5
f 15/35/4 17/36/4 19/37/4
f 15/38/7 20/39/7 16/40/7
f 16/41/1 18/42/1 14/43/1
f 5/1/1 9/44/1 11/2/1
f 3/4/2 1/7/2 5/5/2
f 1/7/2 2/11/2 6/8/2
f 4/9/2 3/4/2 7/6/2
f 2/11/2 4/9/2 8/10/2
f 10/12/3 12/45/3 11/13/3
f 7/15/2 11/46/2 12/16/2
f 8/18/4 12/47/4 10/19/4
f 6/21/5 10/48/5 9/22/5
f 12/24/2 11/49/2 15/25/2
f 3/4/2 4/9/2 14/27/2
f 14/29/6 18/50/6 17/30/6
f 18/32/5 20/51/5 19/33/5
f 15/35/4 13/52/4 17/36/4
f 15/38/7 19/53/7 20/39/7
f 16/41/1 20/54/1 18/42/1
o base_Plane.003
v -0.467336 0.399113 -1.592336
v 0.550000 0.499113 1.425000
v -0.550000 0.499113 -1.675000
v 0.467336 0.399113 1.342336
v 0.550000 0.499113 -1.675000
v -0.467336 0.399113 1.342336
v 0.467336 0.399113 -1.592336
v -0.550000 0.499113 1.425000
v 0.550000 0.399113 1.425000
v 0.550000 0.399113 -1.675000
v -0.550000 0.399113 -1.675000
v -0.550000 0.399113 1.425000
v 0.550000 0.399113 1.425000
v 0.550000 0.399113 -1.675000
v -0.550000 0.399113 -1.675000
v -0.550000 0.399113 1.425000
v 0.467336 -0.000887 -1.592336
v -0.467336 -0.000887 -1.592336
v 0.467336 -0.000887 1.342336
v -0.467336 -0.000887 1.342336
v 0.417336 -0.000887 -1.592336
v -0.417336 -0.000887 -1.592336
v -0.417336 -0.000887 1.342336
v 0.417336 -0.000887 1.342336
v 0.467336 -0.000887 -1.542336
v 0.417336 -0.000887 -1.542336
v -0.467336 -0.000887 -1.542336
v -0.417336 -0.000887 -1.542336
v 0.467336 -0.000887 1.292336
v -0.467336 -0.000887 1.292336
v -0.417336 -0.000887 1.292336
v 0.417336 -0.000887 1.292336
v 0.467336 0.398113 -1.592336
v -0.467336 0.398113 -1.592336
v 0.467336 0.398113 1.342336
v -0.467336 0.398113 1.342336
v 0.417336 0.398113 -1.592336
v -0.417336 0.398113 -1.592336
v -0.417336 0.398113 1.342336
v 0.417336 0.398113 1.342336
v 0.467336 0.398113 -1.542336
v 0.417336 0.398113 -1.542336
v -0.467336 0.398113 -1.542336
v -0.417336 0.398113 -1.542336
v 0.467336 0.398113 1.292336
v -0.467336 0.398113 1.292336
v -0.417336 0.398113 1.292336
v 0.417336 0.398113 1.292336
vt 0.943322 0.709678
vt 0.905589 0.354839
vt 0.943322 0.354839
vt 0.905589 1.000000
vt 0.867856 0.000000
vt 0.905589 0.000000
vt 0.867856 1.000000
vt 0.830123 0.000000
vt 0.867856 0.000000
vt 0.031191 0.973334
vt 0.383870 0.026666
vt 0.383870 0.973334
vt 0.943322 0.354839
vt 0.905589 0.000000
vt 0.943322 0.000000
vt 0.830123 1.000000
vt 0.415062 0.000000
vt 0.830123 0.000000
vt 0.905589 0.709678
vt 0.905589 0.709678
vt 0.905589 0.709678
vt 0.905589 0.709678
vt 0.905589 0.709678
vt 0.905589 0.709678
vt 0.905589 0.709678
vt 0.905589 0.709678
vt 0.000000 0.000000
vt 0.031191 0.026666
vt 0.415062 0.000000
vt 0.000000 1.000000
vt 0.415062 1.000000
vt 0.962188 0.803441
vt 0.981055 0.819570
vt 0.962188 0.819570
vt 0.981055 0.787312
vt 0.962188 0.771183
vt 0.981055 0.771183
vt 0.962188 0.787312
vt 0.981055 0.803441
vt 0.962188 0.803441
vt 0.962188 0.819570
vt 0.943322 0.803441
vt 0.962188 0.803441
vt 0.962188 0.771183
vt 0.943322 0.787312
vt 0.943322 0.771183
vt 0.943322 0.835699
vt 0.962188 0.819570
vt 0.962188 0.835699
vt 0.962188 0.787312
vt 0.943322 0.803441
vt 0.943322 0.787312
vt 0.962188 0.835699
vt 0.981055 0.819570
vt 0.981055 0.835699
vt 0.905589 0.838208
vt 0.924482 0.709678
vt 0.924482 0.838208
vt 0.962214 0.642652
vt 0.981107 0.514122
vt 0.981107 0.642652
vt 0.962215 0.771183
vt 0.981107 0.642652
vt 0.981107 0.771183
vt 0.981107 0.257061
vt 1.000000 0.128530
vt 1.000000 0.257061
vt 0.981107 0.128530
vt 1.000000 0.000000
vt 1.000000 0.128530
vt 0.962214 0.128530
vt 0.981107 0.000000
vt 0.981107 0.128530
vt 0.943322 0.771183
vt 0.962214 0.642652
vt 0.962214 0.771183
vt 0.962215 0.385591
vt 0.981107 0.257061
vt 0.981107 0.385591
vt 0.962214 0.514122
vt 0.981107 0.385591
vt 0.981107 0.514122
vt 0.943322 0.642652
vt 0.962214 0.514122
vt 0.962214 0.642652
vt 0.981107 0.385591
vt 1.000000 0.257061
vt 1.000000 0.385591
vt 0.943322 0.514122
vt 0.962214 0.385591
vt 0.962214 0.514122
vt 0.943322 0.385591
vt 0.962214 0.257061
vt 0.962214 0.385591
vt 0.943322 0.257061
vt 0.962214 0.128530
vt 0.962214 0.257061
vt 0.943322 0.128530
vt 0.962214 0.000000
vt 0.962214 0.128530
vt 0.962214 0.257061
vt 0.981107 0.128530
vt 0.981107 0.257061
vt 0.830123 1.000000
vt 0.415062 1.000000
vt 0.905589 0.709678
vt 0.962214 0.514122
vt 0.943322 0.642652
vt 0.962215 0.257061
vt 0.943322 0.514122
vt 0.981107 0.257061
vt 0.943322 0.257061
vt 0.943322 0.000000
vt 0.867856 1.000000
vt 0.905589 0.354839
vt 0.981055 0.803441
vt 0.962188 0.787312
vt 0.981055 0.787312
vt 0.943322 0.819570
vt 0.962188 0.787312
vt 0.943322 0.819570
vt 0.962188 0.803441
vt 0.962188 0.819570
vt 0.962215 0.642652
vt 0.981107 0.128530
vt 0.981107 0.000000
vt 0.962214 0.000000
vt 0.962214 0.385591
vt 0.943322 0.385591
vt 0.943322 0.128530
vt 0.962214 0.128530
vn 0.0000 0.0000 1.0000
vn -1.0000 0.0000 0.0000
vn 1.0000 0.0000 -0.0000
vn 0.0000 1.0000 0.0000
vn 0.0000 0.0000 -1.0000
vn 0.0000 -1.0000 0.0000
usemtl madera
s off
f 23/55/8 30/56/8 25/57/8
f 25/58/9 29/59/9 22/60/9
f 28/61/10 31/62/10 23/63/10
f 24/64/11 21/65/11 26/66/11
f 22/67/12 32/68/12 28/69/12
f 23/70/13 22/71/13 28/72/13
f 34/73/8 29/74/8 30/75/8
f 35/76/8 30/75/8 31/77/8
f 33/78/8 32/79/8 29/74/8
f 36/80/8 31/77/8 32/79/8
f 24/64/11 34/81/11 27/82/11
f 27/82/11 35/83/11 21/65/11
f 26/66/11 33/84/11 24/64/11
f 21/65/11 36/85/11 26/66/11
f 45/86/13 41/87/13 37/88/13
f 47/89/11 42/90/11 38/91/11
f 49/92/11 44/93/11 39/94/11
f 50/95/13 43/96/13 40/97/13
f 57/98/11 61/99/11 53/100/11
f 58/101/13 63/102/13 54/103/13
f 60/104/13 65/105/13 55/106/13
f 59/107/11 66/108/11 56/109/11
f 52/110/10 60/111/10 44/112/10
f 46/113/9 57/114/9 41/115/9
f 39/116/9 65/117/9 49/118/9
f 37/119/10 61/120/10 45/121/10
f 51/122/10 59/123/10 43/124/10
f 47/125/12 64/126/12 48/127/12
f 41/128/12 53/129/12 37/130/12
f 40/131/9 66/132/9 50/133/9
f 48/134/9 58/135/9 42/136/9
f 42/137/8 54/138/8 38/139/8
f 38/140/10 63/141/10 47/142/10
f 43/143/8 56/144/8 40/145/8
f 50/146/12 67/147/12 51/148/12
f 44/149/12 55/150/12 39/151/12
f 49/152/8 68/153/8 52/154/8
f 45/155/8 62/156/8 46/157/8
f 23/55/8 31/77/8 30/56/8
f 28/61/10 32/158/10 31/62/10
f 23/70/13 25/159/13 22/71/13
f 27/82/11 34/81/11 35/83/11
f 21/65/11 35/83/11 36/85/11
f 52/110/10 68/160/10 60/111/10
f 46/113/9 62/161/9 57/114/9
f 41/128/12 57/162/12 53/129/12
f 40/131/9 56/163/9 66/132/9
f 42/137/8 58/164/8 54/138/8
f 38/140/10 54/165/10 63/141/10
f 50/146/12 66/166/12 67/147/12
f 49/152/8 65/167/8 68/153/8
f 25/58/9 30/168/9 29/59/9
f 24/64/11 27/82/11 21/65/11
f 22/67/12 29/169/12 32/68/12
f 34/73/8 33/78/8 29/74/8
f 35/76/8 34/73/8 30/75/8
f 33/78/8 36/80/8 32/79/8
f 36/80/8 35/76/8 31/77/8
f 24/64/11 33/84/11 34/81/11
f 26/66/11 36/85/11 33/84/11
f 45/86/13 46/170/13 41/87/13
f 47/89/11 48/171/11 42/90/11
f 49/92/11 52/172/11 44/93/11
f 50/95/13 51/173/13 43/96/13
f 57/98/11 62/174/11 61/99/11
f 58/101/13 64/175/13 63/102/13
f 60/104/13 68/176/13 65/105/13
f 59/107/11 67/177/11 66/108/11
f 39/116/9 55/178/9 65/117/9
f 37/119/10 53/179/10 61/120/10
f 51/122/10 67/180/10 59/123/10
f 47/125/12 63/181/12 64/126/12
f 48/134/9 64/182/9 58/135/9
f 43/143/8 59/183/8 56/144/8
f 44/149/12 60/184/12 55/150/12
f 45/155/8 61/185/8 62/156/8
