# Blender v2.93.0 OBJ File: 'Road_Set.blend'
# www.blender.org
mtllib Road_Set.mtl
o Plane.001_Plane.004
v 1.000000 0.000000 11.000000
v 1.000000 0.000000 9.000000
v -1.000000 0.000000 11.000000
v -1.000000 0.000000 9.000000
v 1.000000 0.000000 15.000000
v 1.000000 0.000000 13.000000
v -1.000000 0.000000 15.000000
v -1.000000 0.000000 13.000000
v 1.000000 0.000000 13.000000
v 1.000000 0.000000 11.000000
v -1.000000 0.000000 13.000000
v -1.000000 0.000000 11.000000
v 1.000000 0.000000 7.000000
v 1.000000 0.000000 5.000000
v -1.000000 0.000000 7.000000
v -1.000000 0.000000 5.000000
v 1.000000 0.000000 9.000000
v 1.000000 0.000000 7.000000
v -1.000000 0.000000 9.000000
v -1.000000 0.000000 7.000000
vt 1.000000 0.000000
vt 0.000000 1.000000
vt 0.000000 0.000000
vt 1.000000 0.000000
vt 0.000000 1.000000
vt 0.000000 0.000000
vt 1.000000 0.000000
vt 0.000000 1.000000
vt 0.000000 0.000000
vt 1.000000 0.000000
vt 0.000000 1.000000
vt 0.000000 0.000000
vt 1.000000 0.000000
vt 0.000000 1.000000
vt 0.000000 0.000000
vt 1.000000 1.000000
vt 1.000000 1.000000
vt 1.000000 1.000000
vt 1.000000 1.000000
vt 1.000000 1.000000
vn 0.0000 1.0000 0.0000
usemtl Material.008
s off
f 2/1/1 3/2/1 1/3/1
f 6/4/1 7/5/1 5/6/1
f 10/7/1 11/8/1 9/9/1
f 14/10/1 15/11/1 13/12/1
f 18/13/1 19/14/1 17/15/1
f 2/1/1 4/16/1 3/2/1
f 6/4/1 8/17/1 7/5/1
f 10/7/1 12/18/1 11/8/1
f 14/10/1 16/19/1 15/11/1
f 18/13/1 20/20/1 19/14/1
o Plane.002_Plane.011
v 1.000000 0.000000 1.000000
v 1.000000 0.000000 -1.000000
v -1.000000 0.000000 1.000000
v -1.000000 0.000000 -1.000000
v 1.000000 0.000000 5.000000
v 1.000000 0.000000 3.000000
v -1.000000 0.000000 5.000000
v -1.000000 0.000000 3.000000
v 1.000000 0.000000 3.000000
v 1.000000 0.000000 1.000000
v -1.000000 0.000000 3.000000
v -1.000000 0.000000 1.000000
v 1.000000 0.000000 -3.000000
v 1.000000 0.000000 -5.000000
v -1.000000 0.000000 -3.000000
v -1.000000 0.000000 -5.000000
v 1.000000 0.000000 -1.000000
v 1.000000 0.000000 -3.000000
v -1.000000 0.000000 -1.000000
v -1.000000 0.000000 -3.000000
vt 1.000000 0.000000
vt 0.000000 1.000000
vt 0.000000 0.000000
vt 1.000000 0.000000
vt 0.000000 1.000000
vt 0.000000 0.000000
vt 1.000000 0.000000
vt 0.000000 1.000000
vt 0.000000 0.000000
vt 1.000000 0.000000
vt 0.000000 1.000000
vt 0.000000 0.000000
vt 1.000000 0.000000
vt 0.000000 1.000000
vt 0.000000 0.000000
vt 1.000000 1.000000
vt 1.000000 1.000000
vt 1.000000 1.000000
vt 1.000000 1.000000
vt 1.000000 1.000000
vn 0.0000 1.0000 0.0000
usemtl Material.009
s off
f 22/21/2 23/22/2 21/23/2
f 26/24/2 27/25/2 25/26/2
f 30/27/2 31/28/2 29/29/2
f 34/30/2 35/31/2 33/32/2
f 38/33/2 39/34/2 37/35/2
f 22/21/2 24/36/2 23/22/2
f 26/24/2 28/37/2 27/25/2
f 30/27/2 32/38/2 31/28/2
f 34/30/2 36/39/2 35/31/2
f 38/33/2 40/40/2 39/34/2
o Plane.003_Plane.012
v 1.000000 0.000000 -9.000000
v 1.000000 0.000000 -11.000000
v -1.000000 0.000000 -9.000000
v -1.000000 0.000000 -11.000000
v 1.000000 0.000000 -5.000000
v 1.000000 0.000000 -7.000000
v -1.000000 0.000000 -5.000000
v -1.000000 0.000000 -7.000000
v 1.000000 0.000000 -7.000000
v 1.000000 0.000000 -9.000000
v -1.000000 0.000000 -7.000000
v -1.000000 0.000000 -9.000000
v 1.000000 0.000000 -13.000000
v 1.000000 0.000000 -15.000000
v -1.000000 0.000000 -13.000000
v -1.000000 0.000000 -15.000000
v 1.000000 0.000000 -11.000000
v 1.000000 0.000000 -13.000000
v -1.000000 0.000000 -11.000000
v -1.000000 0.000000 -13.000000
vt 1.000000 0.000000
vt 0.000000 1.000000
vt 0.000000 0.000000
vt 1.000000 0.000000
vt 0.000000 1.000000
vt 0.000000 0.000000
vt 1.000000 0.000000
vt 0.000000 1.000000
vt 0.000000 0.000000
vt 1.000000 0.000000
vt 0.000000 1.000000
vt 0.000000 0.000000
vt 1.000000 0.000000
vt 0.000000 1.000000
vt 0.000000 0.000000
vt 1.000000 1.000000
vt 1.000000 1.000000
vt 1.000000 1.000000
vt 1.000000 1.000000
vt 1.000000 1.000000
vn 0.0000 1.0000 0.0000
usemtl Material.014
s off
f 42/41/3 43/42/3 41/43/3
f 46/44/3 47/45/3 45/46/3
f 50/47/3 51/48/3 49/49/3
f 54/50/3 55/51/3 53/52/3
f 58/53/3 59/54/3 57/55/3
f 46/44/3 48/56/3 47/45/3
f 42/41/3 44/57/3 43/42/3
f 50/47/3 52/58/3 51/48/3
f 54/50/3 56/59/3 55/51/3
f 58/53/3 60/60/3 59/54/3
